<?xml version="1.0" encoding="UTF-8"?>
<svg xmlns="http://www.w3.org/2000/svg" viewBox="0 0 1342 894" width="1342" height="894">
<path d="M0.25 0.25C447.42 0.25 894.58 0.25 1341.75 0.25C1341.75 298.08 1341.75 595.92 1341.75 893.75C894.58 893.75 447.42 893.75 0.25 893.75C0.25 595.92 0.25 298.08 0.25 0.25ZM393.39 129.96C393.93 129.14 394.46 128.32 395 127.5C396.03 127.08 397.05 126.67 398.08 126.25C399.4 125.47 400.73 124.69 402.05 123.91C406.87 126.4 411.68 128.9 416.5 131.4C425.76 116.1 435.01 100.8 444.27 85.5C437.78 84.69 429.67 88.78 423.2 90.58C411.23 93.9 399.19 97.03 387.31 100.68C382.21 102.25 375.11 103.36 370.92 106.5C376.93 109.5 382.95 112.5 388.96 115.5C389.6 120.17 390.24 124.83 390.88 129.5C393.07 131.4 390.42 131.72 393.39 129.96ZM618.1 148.86C617.56 150.64 617.03 152.43 616.5 154.21C603.36 153.19 589.7 154.18 576.5 154.19C553.5 154.2 530.5 154.03 507.5 154.16C493.15 154.24 475.36 151.21 463.2 160.68C450.19 170.81 450.27 185.42 450.28 200.5C450.28 212.5 450.31 224.5 450.25 236.5C450.06 278.83 450.02 321.17 450.15 363.5C450.25 391.58 449.69 419.68 450.85 447.7C438.73 453.81 426.62 459.93 414.5 466.04C410.95 462.69 407.41 459.33 403.86 455.98C404.46 450.79 398.05 446.47 394.55 442.95C384.42 432.77 375.64 423.45 360.46 422.09C357.45 418.89 358.05 415.56 359.04 411.5C362.23 410.66 366.59 411.05 369.3 408.81C373.78 405.1 370.38 399.15 372.29 394.72C372.78 393.57 374.8 392.49 375.68 391.5C373.64 386.13 368.49 383.65 369.81 376.96C374.26 354.36 345.25 347.18 329.11 355.59C312.26 364.36 314.96 383.84 306.71 398.23C297.55 414.23 271.76 421.89 274.41 444.26C274.91 448.48 276.88 452.66 279.58 455.9C281.36 458.03 284.41 459.62 284.91 462.54C285.44 465.57 283.98 468.46 284.07 471.5C284.31 479.69 290.45 484.62 297.18 487.84C296.03 498.11 293.01 508.11 292.17 518.5C291.45 527.45 291.31 536.53 291.07 545.5C290.96 549.74 291.37 554.24 290.76 558.45C290.35 561.25 288.99 563.89 288.16 566.58C285.48 575.24 284.53 589.41 296.5 590.97C298.89 587.05 296.22 581.12 299.5 575.18C300.33 577.69 300.49 579.87 302.5 581.65C307.77 575.14 301.67 566.1 302.51 558.93C304.1 545.32 308.69 532.03 310.91 518.49C312.3 509.97 313.17 499.34 317.97 491.94C319.15 491.99 320.32 492.04 321.49 492.09C322.38 499.16 320.93 505.53 318.63 512.24C317.39 515.87 314.81 520.19 316.78 523.83C307.45 542.28 306.4 563.24 305.8 583.5C305.44 595.84 304.81 608.17 304.32 620.5C303.97 629.37 304.36 638.36 303.51 647.21C302.24 660.34 299.61 673.37 298.23 686.5C296.89 699.35 296.52 712.22 295.5 725.08C294.73 734.81 292.69 754.54 294.5 763.39C295.65 763.66 296.81 763.93 297.96 764.19C297.63 768.13 297.31 772.07 296.98 776.02C294.06 780.97 293.68 787.36 293.86 793C275.2 792.83 256.54 792.67 237.88 792.5C252.57 777.71 262.12 759.07 269.23 739.68C271.07 734.65 275.51 722.59 271.47 718.05C267.41 713.49 259.57 718.66 255.77 721.28C248.84 726.06 242.58 732.38 237.67 739.22C234.31 743.91 231.81 750.86 227.43 754.5C227.68 749.63 230.16 744.95 231.9 740.4C237.22 726.44 246.14 712.65 255.75 701.23C260.56 695.52 267.38 692.06 271.28 685.5C270.9 683.83 270.52 682.17 270.14 680.5C277.58 669.19 283.57 656.27 286.56 643.05C287.22 640.13 291.42 635 290.87 632.46C290.34 629.98 290.5 632.59 289.5 629.84C286.73 629.89 285.8 630.57 283.4 631.69C281.27 632.68 278.87 633.1 276.74 634.19C269.08 638.12 262.41 645 257.17 651.7C242.08 671.02 233.54 694.47 228.59 718.27C226.98 725.97 224.47 733.64 223.5 741.48C222.12 725.66 224.11 704.37 227.48 688.78C228.45 684.28 230.43 679.78 232.06 675.49C237.6 660.91 243.81 646.66 249.85 632.27C252.85 625.11 255.45 617.72 257.88 610.35C258.82 607.48 259.27 603.95 260.71 601.29C261.67 599.52 263.42 598.72 264.89 597.41C268.22 594.45 270.36 590.68 271.71 586.5C270.97 584.89 270.24 583.29 269.5 581.68C267.83 582.37 266.17 583.06 264.5 583.75C263.45 573.85 268.49 559.43 259.5 551.83C254.22 551.76 251.97 554.45 248.85 558.36C242.38 566.46 238.71 576.58 235.66 586.35C228.7 608.64 226.18 632.37 224.02 655.5C222.5 671.69 225.15 690.55 220.5 706.13C220.29 694.92 219.23 683.7 219.3 672.5C219.36 661.59 221.22 650.4 221.96 639.5C223.77 612.7 222.93 582.05 216.62 555.92C213.92 544.75 210.34 533.84 204.92 523.65C202.2 518.53 198.62 513.63 192.5 513.86C187.62 518.36 187.1 525.14 186.88 531.5C186.37 545.97 188.06 560.66 190.48 574.88C193.95 595.24 198.66 615.48 203.81 635.5C207.75 650.79 213.28 666.06 215.55 681.7C216.59 688.87 216.37 696.27 216.75 703.5C217.19 711.88 218.79 721.22 217.5 729.48C216.46 724.3 214.66 719.35 213.43 714.22C205.67 681.77 191.56 649.9 165.2 628.31C158.24 622.61 150.35 617.9 142.05 614.42C137.36 612.46 132.39 610.62 127.79 613.5C125.16 619.32 128.94 624.59 131.95 629.55C139.14 641.42 148.65 651.33 158.22 661.27C169.7 673.2 182.42 683.69 193.27 696.23C207.62 712.81 216.44 733.7 217.65 755.5C217.96 761.04 219.11 766.36 218.5 771.94C217.28 764.04 212.26 756.58 213.71 748.5C210.08 746.11 208.48 740.58 206.92 736.61C204.56 730.65 201.44 724.89 198.3 719.29C189.99 704.51 176.71 691.5 161.53 683.92C154.45 680.38 139.94 673.64 134.09 681.5C134.13 689.52 141.06 695.71 146.35 701.15C160.01 715.22 176.6 726.19 189.96 740.53C193.71 744.56 201.86 752.21 202.5 757.42C191.99 749.6 180.79 742.72 168.49 738.07C163.59 736.21 155.89 734.11 151.4 737.5C148.54 744.35 153.3 750.17 156.65 755.89C165.04 770.23 176.69 782.15 189.57 792.5C185.32 793.36 180.84 792.9 176.5 792.93C166.84 793 157.16 793.06 147.5 793C143.2 792.97 133.35 791.81 130.22 794.05C130.65 796.35 130.41 795.7 132.5 796.85C144.67 796.65 156.83 796.45 169 796.24C170 796.23 171 796.22 172 796.2C172.17 796.55 172.33 796.9 172.5 797.25C174.67 797.11 176.83 796.98 179 796.84C185 796.85 191 796.85 197 796.86C198.5 796.99 200 797.12 201.5 797.24C201.67 797.03 201.83 796.82 202 796.61C202.69 796.69 203.38 796.77 204.07 796.86C207.38 796.86 210.69 796.86 214 796.86C227.67 796.75 241.33 796.64 255 796.53C255.33 796.53 255.67 796.53 256 796.53C258.67 796.64 261.33 796.76 264 796.87C267.5 796.99 271 797.11 274.5 797.23C274.67 797.02 274.83 796.81 275 796.6C294.33 796.62 313.67 796.64 333 796.67C333.17 796.87 333.33 797.08 333.5 797.28C335.33 797.13 337.17 796.99 339 796.84C348.67 796.67 358.33 796.49 368 796.32C372.83 796.33 377.67 796.34 382.5 796.35C382.56 795.94 382.62 795.52 382.68 795.1C384.78 795.42 386.89 795.73 389 796.04C392.33 796.07 395.67 796.09 399 796.12C404.17 796.33 409.33 796.53 414.5 796.74C414.67 796.53 414.83 796.32 415 796.11C416.33 796.11 417.67 796.11 419 796.11C434 796.36 449 796.61 464 796.86C466 796.86 468 796.86 470 796.86C478.67 796.85 487.33 796.85 496 796.84C498.17 796.97 500.33 797.1 502.5 797.23C502.67 797.01 502.83 796.79 503 796.57C503.33 796.57 503.67 796.57 504 796.57C504.17 796.79 504.33 797.01 504.5 797.23C506.33 797.1 508.17 796.97 510 796.84C518.67 796.74 527.33 796.65 536 796.56C536.17 796.78 536.33 797 536.5 797.22C542 797.09 547.5 796.96 553 796.83C554.67 796.84 556.33 796.84 558 796.85C560 796.86 562 796.86 564 796.87C580.67 796.86 597.33 796.85 614 796.84C616 796.84 618 796.84 620 796.83C622.33 796.84 624.67 796.84 627 796.84C629 796.84 631 796.84 633 796.84C636.67 796.75 640.33 796.67 644 796.58C644.17 796.8 644.33 797.01 644.5 797.23C646 797.1 647.5 796.97 649 796.84C659.33 796.84 669.67 796.84 680 796.84C682 796.84 684 796.84 686 796.84C687 796.84 688 796.84 689 796.84C691.33 796.84 693.67 796.84 696 796.85C705.67 796.85 715.33 796.85 725 796.85C726.67 796.85 728.33 796.85 730 796.85C730.67 796.85 731.33 796.85 732 796.85C734.33 796.85 736.67 796.86 739 796.86C748 796.84 757 796.83 766 796.82C767.5 796.96 769 797.09 770.5 797.23C770.67 797.01 770.83 796.79 771 796.57C798.06 796.41 825.11 796.24 852.17 796.07C854.06 796.07 855.94 796.07 857.83 796.08C858.06 796.32 858.28 796.56 858.5 796.8C859.33 796.82 860.17 796.83 861 796.85C866.5 796.98 872 797.11 877.5 797.24C877.67 797.02 877.83 796.81 878 796.59C885 796.67 892 796.75 899 796.84C902.17 796.97 905.33 797.09 908.5 797.22C908.67 797 908.83 796.78 909 796.57C912 796.57 915 796.58 918 796.58C918.17 796.8 918.33 797.01 918.5 797.23C920.5 797.23 922.5 797.24 924.5 797.24C924.67 797.03 924.83 796.82 925 796.61C945 796.69 965 796.77 985 796.85C988 796.85 991 796.86 994 796.86C1008.33 796.88 1022.67 796.9 1037 796.91C1039.17 797.05 1041.33 797.18 1043.5 797.31C1043.67 797.08 1043.83 796.86 1044 796.64C1075.67 796.72 1107.33 796.8 1139 796.88C1140.67 796.88 1142.33 796.88 1144 796.88C1145 796.88 1146 796.88 1147 796.88C1150 796.88 1153 796.88 1156 796.87C1171.67 796.79 1187.33 796.7 1203 796.61C1206.57 798 1210.23 797.41 1213.29 795.5C1212.82 794.7 1212.95 794 1212.09 793.44C1210.21 792.21 1202.03 792.99 1199.5 793C1187.99 793.03 1171.93 794.37 1160.98 792.5C1175.13 780.74 1188 759.35 1194.76 742.39C1197.31 735.99 1203.84 720.84 1192.28 719.46C1190.05 719.19 1187.71 719.72 1185.5 719.94C1179.25 715.57 1182.32 709.82 1186.88 705.38C1194 698.44 1203.12 693.75 1209.86 686.35C1212.54 683.4 1215.42 678.78 1212.58 674.94C1209.48 670.73 1201.94 671.75 1197.51 672.24C1186.56 673.44 1176.62 677.93 1166.62 682.11C1161.57 684.22 1156.05 686.15 1151.29 682.5C1147.87 673.76 1157.5 663.46 1164 658.54C1176.1 649.4 1190.21 642.29 1201.1 631.6C1205.66 627.12 1210.58 621.26 1210.65 614.49C1210.72 606.89 1204.18 603.39 1197.5 602.83C1188.97 602.11 1181.51 605.57 1173.55 608.02C1168.97 609.42 1164.9 611.2 1160.53 608.5C1158.24 601.1 1163.38 594.55 1167.05 588.49C1173.96 577.06 1181.96 565.67 1184.77 552.35C1186.25 545.31 1187.16 531.72 1177.46 530.01C1168.59 528.44 1160.46 536.69 1155.25 542.75C1140.91 559.42 1132.73 581.05 1129.02 602.51C1127.94 608.8 1128.41 625.92 1122.5 628.81C1119.25 624.45 1118.77 618.59 1117.09 613.51C1115.71 609.34 1113.69 604.89 1111.43 601.11C1109.03 597.09 1104.11 593.63 1099.74 597.24C1095.67 600.59 1094.45 607.14 1093.43 612C1090.31 626.92 1091.57 642.72 1094.87 657.5C1096.37 664.2 1100.05 673.27 1096.5 679.66C1091.97 678.04 1086.68 666.23 1081.5 661.85C1080.7 661.91 1079.9 661.98 1079.1 662.04C1075.72 649.4 1076.35 635.49 1075.88 622.5C1075 598.1 1075.22 573.71 1074.01 549.33C1077.01 547.35 1075.92 544.02 1075.68 540.69C1075.22 534.07 1074.22 527.09 1074.91 520.5C1081.62 516.02 1089.85 511.3 1092.78 503.32C1096.32 493.64 1091.65 480.89 1088.96 471.39C1084.74 456.49 1079.86 435.94 1068.86 424.62C1062.3 417.87 1052.81 414 1044.15 410.82C1043.13 406.86 1042.1 402.9 1041.08 398.94C1047.37 389.91 1056.69 377.3 1053.69 365.73C1052.77 362.19 1050.05 361.01 1048.15 358.3C1046.05 355.29 1045.57 352.44 1042.32 350.13C1033.82 344.08 1024.8 348.02 1015.5 347.15C1011.37 346.76 1007.59 343.07 1003.53 343.87C997.4 345.08 996.72 353.99 999.01 358.45C1000.14 360.66 1001.93 361.89 1003.86 363.35C1003.66 365.77 1002.16 375.02 1001.52 377.05C1000.36 380.7 997.52 382.62 997.39 386.5C998.45 387.13 1000.2 387.68 1000.91 388.7C1004.07 393.21 1000.39 401.81 1007.69 403.72C1010.72 404.51 1013.68 403.7 1016.66 403.5C1017.39 406.72 1018.12 409.93 1018.85 413.15C1016.48 414.71 1013.65 415.42 1010.98 416.48C1005.63 418.62 1000.17 421.54 995.82 425.35C987.35 432.74 982.51 445.08 977.4 454.86C974.02 461.33 969.55 467.69 967 474.5C964.98 473.01 962.97 471.52 960.95 470.03C962.13 462.57 960.97 455.05 961.02 447.5C961.14 429.84 961.26 412.17 961.29 394.5C961.36 341.83 961.44 289.17 961.37 236.5C961.36 224.5 961.36 212.5 961.36 200.5C961.37 182.4 962.58 168.77 945.31 158.15C934.45 151.48 919.66 153.82 907.5 153.9C880.85 154.07 854.16 154 827.5 153.89C820.17 153.87 812.83 153.85 805.5 153.93C802.88 153.96 798.61 155.1 796.41 154C796.31 138.31 783.56 138.36 771.5 138.44C765.5 138.48 759.5 138.53 753.5 138.54C749.16 138.55 744.83 138.33 740.5 138.31C738.35 128.1 740.32 120.22 733.5 111.04C720.88 94.06 693.29 94.34 680.96 111.47C673.91 121.26 676.27 127.48 674.5 138.26C663.52 138.77 652.49 138.49 641.5 138.46C630.76 138.42 622.9 137.62 618.1 148.86ZM702.95 117.59C719.15 111.44 728.05 135.97 712.24 141.67C695.65 147.64 686.34 123.89 702.95 117.59ZM617.7 184C617.69 187 617.46 190.08 618.51 192.95C622.38 203.61 642.53 200.27 651.5 200.27C687.17 200.27 722.83 200.31 758.5 200.28C764.17 200.27 769.83 200.25 775.5 200.25C786.36 200.23 797.46 200.39 796.15 186C796.6 184.95 797.05 183.9 797.5 182.85C826.77 183.22 856.19 182.88 885.5 182.81C898.14 182.78 913.28 180.09 923.74 188.76C936.33 199.2 932.21 224.52 932.3 239.5C932.57 285.16 932.42 330.84 932.37 376.5C932.36 389.5 932.53 402.5 932.42 415.5C932.36 422.77 930.27 427.1 936.5 432C936.33 432.93 936.17 433.87 936 434.8C934.04 433.82 932.07 432.83 930.11 431.85C928.5 424.96 923.29 423.74 917.11 422.45C913.97 421.8 912.01 420.61 908.94 422.03C902.98 418.69 896.25 414.25 889.27 416.5C894.21 423.11 901.36 424.73 907.9 429.05C907.37 431.05 908.24 432.45 908.32 434.5C908.42 437.13 907.32 439.85 907.81 442.48C908.73 447.48 918.15 455 922.05 458.23C921.73 459.32 921.41 460.41 921.09 461.5C924.83 466.93 928.57 472.37 932.31 477.8C933.26 498.94 932.43 520.31 932.42 541.5C932.41 587.16 932.11 632.84 932.38 678.5C932.49 695.5 932.38 712.5 932.39 729.5C932.39 738.34 933.61 747.84 927.9 755.33C919.32 766.59 907.41 765.92 894.5 766C873.51 766.14 852.49 766.16 831.5 766.07C746.84 765.72 662.16 765.79 577.5 766.03C557.83 766.09 538.17 766.1 518.5 766.08C507.28 766.07 496.11 766.6 487.96 757.53C480.84 749.6 481.69 739.43 481.73 729.5C481.81 711.5 481.77 693.5 481.77 675.5C481.78 622.83 481.78 570.17 481.74 517.5C481.72 501.5 481.84 485.5 481.75 469.5C481.72 463.15 483.21 455 481.01 449.01C483.03 444.86 483.75 439.68 480.03 436.5C483.45 433.07 488.95 433.07 491.34 428.5C488.09 427.75 485.76 428.66 482.45 429.15C481.07 421.07 481.76 412.68 481.78 404.5C481.83 392.5 481.81 380.5 481.81 368.5C481.82 328.83 481.93 289.16 481.85 249.5C481.84 239.17 481.85 228.83 481.85 218.5C481.85 206.74 481.57 195.23 492.11 187.59C502.53 180.04 517.39 182.87 529.5 182.78C549.5 182.64 569.5 182.82 589.5 182.76C598.33 182.73 607.29 183.22 616.09 182.5C616.63 183 617.16 183.5 617.7 184ZM1199.99 227.5C1198.66 219.06 1197.13 210.91 1191.34 204.17C1177.92 188.55 1152.63 187.86 1138.67 203.18C1133.47 208.89 1131.69 215.2 1129.89 222.5C1124 222.59 1118.59 221.27 1113.09 224.59C1103.62 230.29 1102.66 244.19 1111.83 250.64C1119.76 256.21 1134.12 253.83 1143.5 253.9C1161.16 254.01 1178.84 253.98 1196.5 253.88C1203.89 253.84 1213.28 255.49 1220.27 252.72C1230.08 248.86 1230.21 236.01 1222.31 230.18C1215.26 224.97 1207.88 226.9 1199.99 227.5ZM593.79 270.5C589.05 269.5 586.77 274.1 583.94 277.44C577.11 285.52 570.85 294.29 563.5 301.92C558.64 299.12 555.38 290.53 549.25 292.5C548.63 293.82 547.97 294.5 548.5 296.06C549.46 298.87 560.72 309.75 563.5 310.82C567.25 308.64 569.9 304.52 572.6 301.15C577.75 294.72 583.05 288.18 588.57 282.08C591.64 278.69 596.33 275.14 593.79 270.5ZM661 281.83C660.83 281.55 660.67 281.26 660.5 280.98C657.5 280.98 654.5 280.98 651.5 280.98C651.33 281.26 651.17 281.55 651 281.83C649.02 281.79 648.5 281.12 646.72 280.56C646.6 280.52 634.75 280.7 634.5 280.78C633.76 281.02 633.22 281.69 632.5 282C632.72 278.94 626.67 280.73 624.5 281.03C622.54 284.02 622.69 285.33 624.5 288.3C629.55 290.63 639.1 288.66 645 288.92C655.27 289.38 665.66 289.01 676 288.93C682.8 288.88 689.64 289.38 696.5 289.19C701.45 289.04 712.01 290.52 716.07 288.49C717.8 287.63 717.84 286.1 718.26 284.5C715.54 278.77 708.06 280.42 702.5 280.45C693.89 280.5 685.27 280.51 676.66 280.5C673.45 280.5 669.67 279.89 666.53 280.46C664.34 280.86 663.61 281.98 661 281.83ZM850 295.16C851.19 295.34 852.38 295.51 853.57 295.69C854 295.43 854.44 295.16 854.87 294.9C855.62 293.98 856.36 293.07 857.1 292.15C859.98 287.76 855.5 281.58 850.01 283.36C844.17 285.25 844.93 293.33 850 295.16ZM860.05 291C859.89 291.33 859.72 291.67 859.56 292C859.46 292.33 859.36 292.67 859.27 293C859.68 294.02 860.09 295.04 860.5 296.05C861.34 296.07 862.18 296.09 863.02 296.11C861.02 297.13 859.87 296.78 859.5 298.92C863.44 301.02 864.2 303.89 865.5 308.13C871.19 307.54 873.66 302.92 868.7 298.97C867.24 297.81 864.73 296.95 863.02 296.11C863.34 295.57 863.67 295.04 864 294.5C867.86 295.24 867.79 291.37 867.5 288.43C866.5 287.51 865.5 286.58 864.5 285.65C862.92 286.27 861.33 286.88 859.75 287.5C859.85 288.67 859.95 289.83 860.05 291ZM861.71 309.5C861.86 306.92 862.29 304.15 860.47 302.02C855.29 295.96 841.22 297.46 842.5 307.8C848.57 310.21 855.22 311.13 861.71 309.5ZM184.5 332.87C182.46 325.79 182.07 319.3 177.35 313.16C166.41 298.92 144.08 297.4 131 309.51C125.16 314.91 124.22 321.76 121.1 328.5C115.17 328.18 109.51 327.87 104.94 332.43C98.38 338.96 100.24 351.9 109.77 354.61C117.15 356.71 133.2 355.3 141.5 355.3C154.5 355.3 167.5 355.19 180.5 355.25C187.39 355.29 194.65 356 201.5 355.16C211.25 353.97 215.66 342.34 207.87 335.6C201.24 329.85 192.33 330.92 184.5 332.87ZM594.18 391.5C588.85 389.78 587.04 394.53 583.98 398.37C577.46 406.55 570.67 415.07 563.5 422.67C559.35 420.11 551.84 406.97 548.09 415.5C550.1 419.87 559.03 429.75 563.5 431.16C567.48 429.07 570.15 424.97 573 421.51C578.11 415.3 583.11 408.92 588.52 402.97C591.47 399.72 596.07 395.99 594.18 391.5ZM866.01 428.94C866.5 429.66 867 430.38 867.5 431.1C870.02 428.11 868.96 423.32 869.3 419.5C868.62 419.33 867.94 419.17 867.25 419C867.24 418.67 867.23 418.33 867.22 418C868.06 417.35 868.65 417.65 869.19 416.47C869.72 415.3 868.78 408 868.5 406.72C865.04 405.59 864.87 405.5 862.5 403.05C861.98 403.77 861.15 405.41 860.36 405.79C859.83 406.05 851.11 406.26 850.81 405.94C850.47 405.56 850.68 404.01 850.66 403.5C846.32 403.99 849.92 403.61 847.39 405.77C846.74 406.32 844.63 406.28 843.73 406.5C842.14 411.06 842.17 425.85 843.37 430.5C846.06 431.39 855.68 432.43 858.25 430.91C858.74 430.62 858.53 429.48 858.5 429C861.09 430.83 864.59 432.68 866.01 428.94ZM861 413.81C861.3 413.8 861.61 413.78 861.91 413.77C860.8 415.68 859.69 417.59 858.58 419.5C858.38 419.53 858.19 419.57 858 419.6C857.97 419.03 857.95 418.46 857.92 417.9C857.6 417.24 857.28 416.58 856.96 415.92C856.8 415.69 856.65 415.47 856.5 415.25C855.77 415.33 855.04 415.42 854.32 415.5C854.21 415.98 854.09 416.46 853.98 416.93C853.95 417.58 853.92 418.22 853.88 418.86C853.61 418.07 853.33 417.29 853.05 416.5C852.44 416.3 851.83 416.09 851.23 415.89C850.98 415.6 850.74 415.32 850.5 415.03C849.26 414.85 848.01 414.68 846.77 414.5C851.51 414.27 856.26 414.04 861 413.81ZM856.96 415.92C856.97 416.59 856.99 417.25 857 417.92C856.33 417.6 855.67 417.27 855 416.95C855.65 416.61 856.3 416.26 856.96 415.92ZM862.98 417C863.32 417.17 863.66 417.33 864 417.5C863.68 418 863.36 418.5 863.04 419C863.02 418.33 863 417.67 862.98 417ZM850 425.84C850.39 425.86 850.77 425.88 851.16 425.9C850.27 426.21 849.39 426.52 848.5 426.83C848.31 427.26 848.12 427.7 847.93 428.14C847.66 428.14 847.4 428.13 847.13 428.13C846.73 427.41 846.33 426.68 845.92 425.96C845.92 424.97 845.91 423.99 845.91 423.01C846.44 422.64 846.97 422.28 847.5 421.91C847.83 423.4 848.17 424.89 848.5 426.38C849 426.2 849.5 426.02 850 425.84ZM856.93 422.39C857.14 422.64 857.34 422.9 857.54 423.15C857.34 422.9 857.14 422.64 856.93 422.39ZM854.62 423C854.74 423.89 854.86 424.78 854.97 425.67C854.65 425.61 854.32 425.56 854 425.5C854.21 424.67 854.41 423.83 854.62 423ZM866.01 423.02C866.04 424.35 866.06 425.67 866.09 427C866.08 427.41 866.08 427.83 866.07 428.24C866.05 428.47 866.03 428.71 866.01 428.94C865.67 428.89 865.34 428.84 865 428.79C864.67 428.77 864.33 428.76 864 428.75C863.34 428.66 862.68 428.56 862.02 428.47C862.85 428.08 863.67 427.68 864.5 427.29C864.76 426.02 865.02 424.76 865.29 423.5C865.53 423.34 865.77 423.18 866.01 423.02ZM857.54 424.03C857.36 424.58 857.17 425.13 856.98 425.68C857.17 425.13 857.36 424.58 857.54 424.03ZM851.77 425.16C851.57 425.4 851.36 425.65 851.16 425.9C851.36 425.65 851.57 425.4 851.77 425.16ZM931.13 439.93C932.04 440.33 932.95 440.72 933.86 441.12C933.4 441.33 932.95 441.54 932.5 441.75C932.25 442.78 932 443.82 931.74 444.86C931.54 443.21 931.33 441.57 931.13 439.93ZM451 464.19C449.63 474.88 450.12 485.75 450.1 496.5C450.09 511.83 450.04 527.17 450.04 542.5C450.03 598.49 450.76 654.52 450.14 710.5C450 722.49 450 734.5 450.05 746.5C450.13 767.2 450.32 783.84 472.45 792.5C454.37 792.67 436.29 792.83 418.21 793C418.23 792.67 418.24 792.33 418.25 792C418.63 791.83 419.01 791.67 419.39 791.5C419.55 790.5 419.7 789.5 419.85 788.5C418.4 787.86 416.95 787.22 415.5 786.58C415.33 787.02 415.17 787.46 415 787.9C408.12 784.86 401.25 781.83 394.37 778.8C393.75 778.61 393.12 778.42 392.5 778.23C389.18 774.16 389.23 770.38 389.29 765.26C390.56 765.01 391.83 764.75 393.11 764.5C393.97 757.2 393.88 749.84 394.2 742.5C394.95 725.52 395.74 708.54 396.46 691.55C398.81 635.98 398.19 579.53 385.02 525.23C387.59 520.77 384.4 512.55 383.65 507.51C382.38 499.06 381.05 478.78 384.5 471.29C386.81 472.63 388.01 474.07 390.64 472.92C392.74 476.06 395.86 478.33 398.89 480.57C402.87 483.53 407.55 488 412.67 488.65C418.14 489.34 423.81 485.62 428.01 482.53C431.66 479.86 435.53 477.41 438.99 474.49C442.97 471.13 446.63 467.04 451 464.19ZM993.87 549.01C992.29 568.55 988.93 587.95 987.23 607.5C984.3 641.18 983.9 674.71 983.89 708.5C983.89 720.83 983.89 733.17 983.9 745.5C983.9 752.41 983.3 759.72 984.5 766.49C985.66 766.67 986.83 766.85 987.99 767.03C987.96 769.34 987.92 771.65 987.89 773.95C983.56 776.39 979.84 779.67 975.28 781.75C970.58 783.9 964.44 784.79 960.18 787.66C958.2 788.99 958.02 790.82 957.77 793C951.68 793 945.59 793 939.5 793C941.02 791.69 943.49 791.24 945.38 789.96C949.63 787.07 954.15 782.73 956.84 778.32C962.38 769.2 961.25 757.68 961.14 747.5C960.98 732.17 961.1 716.83 961.14 701.5C961.27 660.84 961.26 620.17 961.19 579.5C961.15 555.72 960.29 531.71 961.28 507.95C963.6 508.73 965.99 509.84 968.5 509.88C981.68 510.08 986.88 495.19 995 488.5C995.55 502.68 994.67 517.13 993.55 531.27C993.15 536.31 991.11 544.71 993.87 549.01ZM854.62 509.45C850.07 509.79 845.72 511.04 841.75 513.3C817.18 527.3 828.23 565.9 856.5 565.18C860.26 565.08 863.86 564.2 867.25 562.64C894.8 549.92 885.15 507.19 854.62 509.45ZM593.97 511.5C588.73 510.4 587.13 514.85 584.09 518.43C577.21 526.52 570.64 534.9 563.5 542.75C558.61 539.84 555.43 531.17 549.16 533.5C548.72 534.52 548.11 535.09 548.32 536.3C548.63 538.16 551.09 539.88 552.31 541.19C555.82 544.91 558.67 549.62 563.5 551.51C569.78 547.61 583.23 529.76 588.58 523.1C591.43 519.55 596.28 516.17 593.97 511.5ZM657 522.79C653.74 520.96 655.26 520.96 652 522.79C653.67 522.79 655.33 522.79 657 522.79ZM371 765.28C371.2 768.69 371.39 772.09 371.59 775.5C371.39 775.95 371.19 776.41 370.99 776.86C369.24 782.14 368.68 787.46 369.02 793C356.69 793.31 344.36 793.63 332.03 793.94C332.01 787.65 326.32 785.23 321.21 782.77C314.95 778.32 312.72 772.92 314.97 765.15C316.55 764.93 318.14 764.72 319.72 764.5C327.05 729.69 335.29 694.97 343.91 660.46C346.16 651.48 347.77 642.31 349.61 633.24C350.31 629.77 350.36 625.57 352.5 623C354.22 627.59 354.39 632.65 355.03 637.5C356.55 648.93 357.57 659.99 358.21 671.5C359.37 692.56 361.55 713.57 363.64 734.56C364.63 744.51 365.03 754.65 366.82 764.5C368.21 764.76 369.61 765.02 371 765.28ZM1066.57 767.21C1066.73 769.51 1066.9 771.81 1067.06 774.1C1062.66 776.99 1058.89 780.24 1054.07 782.54C1048.25 785.32 1040.55 785.78 1039.12 793C1030.91 795.72 1018.9 791.55 1010.03 794.75C1012.22 788.81 1011.45 780.09 1008.38 774.55C1008.58 772.09 1008.79 769.64 1009 767.19C1010.45 766.96 1011.9 766.73 1013.35 766.5C1015.27 759.16 1015.3 751.07 1016.27 743.53C1019.15 721.23 1021.44 698.85 1023.87 676.5C1025.6 660.71 1027.31 643.91 1033.5 629.07C1035.54 638.77 1036.36 648.71 1038.16 658.46C1042.57 682.31 1048.66 705.88 1053.72 729.6C1056.33 741.81 1058.32 754.61 1062.14 766.5C1063.62 766.74 1065.09 766.98 1066.57 767.21ZM851.76 630.44C822.26 634.73 820.34 676.16 848.53 684.86C852.55 686.1 857.13 686.28 861.29 685.59C889.19 680.9 891.68 638.7 864.37 631.29C860.28 630.18 855.94 629.83 851.76 630.44ZM594.46 632.5C589.83 629.73 586.96 635.18 584.21 638.67C577.65 646.99 570.94 656.08 563.5 663.6C559.5 660.08 555.5 656.57 551.5 653.06C549.74 653.93 547.88 654.81 548.41 657.22C549.03 660.06 559.8 670.49 562.5 672.11C566.86 671.08 569.28 666.98 572.05 663.57C577.58 656.77 583.07 649.84 588.95 643.34C591.74 640.26 595.51 636.83 594.46 632.5ZM717.75 648.5C719.13 638.78 707.07 641.74 700.5 641.73C681.5 641.7 662.5 641.77 643.5 641.72C639.78 641.71 625.86 640.57 623.72 643.18C622.58 644.57 622.81 645.84 622.69 647.5C626.29 652.05 633 650.66 638.5 650.67C640.7 650.67 644.69 651.74 644.5 649C646.64 649 649.39 648.54 651.47 649.03C652.97 649.39 653.8 650.71 655.47 650.55C656.47 650.45 656.81 649.5 657.69 649.23C660.7 648.3 664.49 649 667 650C665.33 650 663.67 650 662 650C666.04 650.98 677.14 651.52 681.47 650.52C682.91 650.19 683.62 649.46 685 649.5C685.88 649.52 685.76 649.06 686.59 649.53C686.99 649.76 685.91 650.21 686.75 650.5C688.53 651.12 694.47 651.14 696.25 650.52C696.27 650.51 697.17 649.32 697.5 649C700.57 651.96 714.61 651.29 717.75 648.5ZM1090.16 750C1091.02 751.63 1091.08 753.61 1091.9 755.44C1096.04 764.6 1100.5 773.51 1104.94 782.56C1106.57 785.88 1107.76 789.31 1109.67 792.5C1107.84 792.49 1107.07 791.51 1105.51 791.37C1104.22 791.26 1103.3 792.16 1102.13 792.43C1098.74 793.23 1094.23 793.55 1091.09 792C1090.9 786.08 1090.67 779.38 1087.7 774.11C1087.5 771.47 1087.31 768.84 1087.12 766.2C1088.39 765.97 1089.66 765.73 1090.93 765.5C1090.67 760.33 1090.41 755.17 1090.16 750Z" fill="#fefefe" fill-rule="evenodd" stroke="#fefefe" stroke-width="0.25" stroke-linejoin="round"/>
<path d="M402.05 123.91C401.7 123.35 401.35 122.79 401 122.23C399.17 121.61 397.33 121 395.5 120.38C394.32 123.81 393.01 126.44 393.39 129.96C390.42 131.72 393.07 131.4 390.88 129.5C390.24 124.83 389.6 120.17 388.96 115.5C382.95 112.5 376.93 109.5 370.92 106.5C375.11 103.36 382.21 102.25 387.31 100.68C399.19 97.03 411.23 93.9 423.2 90.58C429.67 88.78 437.78 84.69 444.27 85.5C435.01 100.8 425.76 116.1 416.5 131.4C411.68 128.9 406.87 126.4 402.05 123.91ZM618.1 148.86C617.97 160.57 617.83 172.29 617.7 184C617.16 183.5 616.63 183 616.09 182.5C607.29 183.22 598.33 182.73 589.5 182.76C569.5 182.82 549.5 182.64 529.5 182.78C517.39 182.87 502.53 180.04 492.11 187.59C481.57 195.23 481.85 206.74 481.85 218.5C481.85 228.83 481.84 239.17 481.85 249.5C481.93 289.16 481.82 328.83 481.81 368.5C481.81 380.5 481.83 392.5 481.78 404.5C481.76 412.68 481.07 421.07 482.45 429.15C477.48 431.91 471.57 433 466.73 436.23C461.14 439.97 457.35 445.26 450.85 447.7C449.69 419.68 450.25 391.58 450.15 363.5C450.02 321.17 450.06 278.83 450.25 236.5C450.31 224.5 450.28 212.5 450.28 200.5C450.27 185.42 450.19 170.81 463.2 160.68C475.36 151.21 493.15 154.24 507.5 154.16C530.5 154.03 553.5 154.2 576.5 154.19C589.7 154.18 603.36 153.19 616.5 154.21C617.03 152.43 617.56 150.64 618.1 148.86ZM796.41 154C798.61 155.1 802.88 153.96 805.5 153.93C812.83 153.85 820.17 153.87 827.5 153.89C854.16 154 880.85 154.07 907.5 153.9C919.66 153.82 934.45 151.48 945.31 158.15C962.58 168.77 961.37 182.4 961.36 200.5C961.36 212.5 961.36 224.5 961.37 236.5C961.44 289.17 961.36 341.83 961.29 394.5C961.26 412.17 961.14 429.84 961.02 447.5C960.97 455.05 962.13 462.57 960.95 470.03C954.35 466.25 948.24 460.06 942.47 455.04C939.58 452.52 936.76 449.11 933.03 448.07C932.6 447 932.17 445.93 931.74 444.86C932 443.82 932.25 442.78 932.5 441.75C932.95 441.54 933.4 441.33 933.86 441.12C937.46 441.89 939.37 443.36 942.1 440.5C941.02 437.21 939.01 436.42 936 434.8C936.17 433.87 936.33 432.93 936.5 432C930.27 427.1 932.36 422.77 932.42 415.5C932.53 402.5 932.36 389.5 932.37 376.5C932.42 330.84 932.57 285.16 932.3 239.5C932.21 224.52 936.33 199.2 923.74 188.76C913.28 180.09 898.14 182.78 885.5 182.81C856.19 182.88 826.77 183.22 797.5 182.85C797.05 183.9 796.6 184.95 796.15 186C796.1 184.23 796.06 182.46 796.02 180.69C796.15 171.79 796.28 162.9 796.41 154ZM1199.99 227.5C1207.88 226.9 1215.26 224.97 1222.31 230.18C1230.21 236.01 1230.08 248.86 1220.27 252.72C1213.28 255.49 1203.89 253.84 1196.5 253.88C1178.84 253.98 1161.16 254.01 1143.5 253.9C1134.12 253.83 1119.76 256.21 1111.83 250.64C1102.66 244.19 1103.62 230.29 1113.09 224.59C1118.59 221.27 1124 222.59 1129.89 222.5C1131.69 215.2 1133.47 208.89 1138.67 203.18C1152.63 187.86 1177.92 188.55 1191.34 204.17C1197.13 210.91 1198.66 219.06 1199.99 227.5ZM651 281.83C654.33 281.83 657.67 281.83 661 281.83C663.61 281.98 664.34 280.86 666.53 280.46C669.67 279.89 673.45 280.5 676.66 280.5C685.27 280.51 693.89 280.5 702.5 280.45C708.06 280.42 715.54 278.77 718.26 284.5C717.84 286.1 717.8 287.63 716.07 288.49C712.01 290.52 701.45 289.04 696.5 289.19C689.64 289.38 682.8 288.88 676 288.93C665.66 289.01 655.27 289.38 645 288.92C639.1 288.66 629.55 290.63 624.5 288.3C622.69 285.33 622.54 284.02 624.5 281.03C626.67 280.73 632.72 278.94 632.5 282C633.22 281.69 633.76 281.02 634.5 280.78C634.75 280.7 646.6 280.52 646.72 280.56C648.5 281.12 649.02 281.79 651 281.83ZM860.05 291C859.89 291.33 859.72 291.67 859.56 292C859.72 291.67 859.89 291.33 860.05 291ZM859.56 292C859.46 292.33 859.36 292.67 859.27 293C859.36 292.67 859.46 292.33 859.56 292ZM854.87 294.9C854.44 295.16 854 295.43 853.57 295.69C854 295.43 854.44 295.16 854.87 294.9ZM184.5 332.87C192.33 330.92 201.24 329.85 207.87 335.6C215.66 342.34 211.25 353.97 201.5 355.16C194.65 356 187.39 355.29 180.5 355.25C167.5 355.19 154.5 355.3 141.5 355.3C133.2 355.3 117.15 356.71 109.77 354.61C100.24 351.9 98.38 338.96 104.94 332.43C109.51 327.87 115.17 328.18 121.1 328.5C124.22 321.76 125.16 314.91 131 309.51C144.08 297.4 166.41 298.92 177.35 313.16C182.07 319.3 182.46 325.79 184.5 332.87ZM861 412.99C861 413.26 861 413.54 861 413.81C856.26 414.04 851.51 414.27 846.77 414.5C848.01 414.68 849.26 414.85 850.5 415.03C850.74 415.32 850.98 415.6 851.23 415.89C846.9 417.36 847.57 420.11 852.11 419.5C851.41 419.17 850.7 418.83 850 418.5C850.71 418.17 851.41 417.83 852.12 417.5C851.82 416.96 851.52 416.42 851.23 415.89C851.83 416.09 852.44 416.3 853.05 416.5C853.33 417.29 853.61 418.07 853.88 418.86C854.59 419.07 855.29 419.29 856 419.5C855.67 418.65 855.33 417.8 855 416.95C855.67 417.27 856.33 417.6 857 417.92C857.33 418.48 857.67 419.04 858 419.6C858.19 419.57 858.38 419.53 858.58 419.5C859.69 417.59 860.8 415.68 861.91 413.77C863.11 413.61 864.3 413.46 865.5 413.3C865.67 416.54 865.84 419.78 866.01 423.02C865.77 423.18 865.53 423.34 865.29 423.5C865.02 424.76 864.76 426.02 864.5 427.29C863.67 427.68 862.85 428.08 862.02 428.47C857.33 428.36 852.63 428.25 847.93 428.14C848.12 427.7 848.31 427.26 848.5 426.83C849.39 426.52 850.27 426.21 851.16 425.9C851.36 425.65 851.57 425.4 851.77 425.16C851.85 424.27 851.92 423.39 852 422.5C851 422.5 850 422.5 849 422.5C849.33 423.61 849.67 424.73 850 425.84C849.5 426.02 849 426.2 848.5 426.38C848.17 424.89 847.83 423.4 847.5 421.91C846.97 422.28 846.44 422.64 845.91 423.01C845.82 419.84 845.73 416.67 845.64 413.5C850.76 413.33 855.88 413.16 861 412.99ZM856.96 415.92C856.3 416.26 855.65 416.61 855 416.95C854.66 416.95 854.32 416.94 853.98 416.93C854.09 416.46 854.21 415.98 854.32 415.5C855.04 415.42 855.77 415.33 856.5 415.25C856.65 415.47 856.8 415.69 856.96 415.92ZM856.96 415.92C857.28 416.58 857.6 417.24 857.92 417.9C857.61 417.9 857.31 417.91 857 417.92C856.99 417.25 856.97 416.59 856.96 415.92ZM863.04 419C863.36 418.5 863.68 418 864 417.5C863.66 417.33 863.32 417.17 862.98 417C862.82 416.73 862.66 416.47 862.5 416.2C861.83 416.3 861.17 416.4 860.5 416.5C860.5 417.61 860.5 418.72 860.5 419.82C861.35 419.55 862.19 419.27 863.04 419ZM862.98 417C863 417.67 863.02 418.33 863.04 419C862.69 418.83 862.35 418.67 862 418.5C862.33 418 862.65 417.5 862.98 417ZM854.62 423C854.41 423.83 854.21 424.67 854 425.5C854.32 425.56 854.65 425.61 854.97 425.67C855.64 425.67 856.31 425.67 856.98 425.68C857.17 425.13 857.36 424.58 857.54 424.03C857.54 423.74 857.54 423.44 857.54 423.15C857.34 422.9 857.14 422.64 856.93 422.39C856.16 422.59 855.39 422.8 854.62 423ZM862.62 422.5C859.95 422.35 860.28 422.86 860.5 425.2C862.66 424.21 862.19 424.79 862.62 422.5ZM861.5 423C861.67 423.17 861.83 423.33 862 423.5C861.83 423.67 861.67 423.83 861.5 424C861.33 423.83 861.17 423.67 861 423.5C861.17 423.33 861.33 423.17 861.5 423ZM845.92 425.96C846.33 426.68 846.73 427.41 847.13 428.13C846.73 427.41 846.33 426.68 845.92 425.96ZM866.09 427C866.36 427 866.63 427 866.89 427C866.62 427.41 866.34 427.83 866.07 428.24C866.08 427.83 866.08 427.41 866.09 427ZM865 428.79C864.67 428.77 864.33 428.76 864 428.75C864.33 428.76 864.67 428.77 865 428.79ZM481.01 449.01C483.21 455 481.72 463.15 481.75 469.5C481.84 485.5 481.72 501.5 481.74 517.5C481.78 570.17 481.78 622.83 481.77 675.5C481.77 693.5 481.81 711.5 481.73 729.5C481.69 739.43 480.84 749.6 487.96 757.53C496.11 766.6 507.28 766.07 518.5 766.08C538.17 766.1 557.83 766.09 577.5 766.03C662.16 765.79 746.84 765.72 831.5 766.07C852.49 766.16 873.51 766.14 894.5 766C907.41 765.92 919.32 766.59 927.9 755.33C933.61 747.84 932.39 738.34 932.39 729.5C932.38 712.5 932.49 695.5 932.38 678.5C932.11 632.84 932.41 587.16 932.42 541.5C932.43 520.31 933.26 498.94 932.31 477.8C937.91 482.45 942.5 489.62 947.33 495.2C951.53 500.05 956.61 503.68 961.28 507.95C960.29 531.71 961.15 555.72 961.19 579.5C961.26 620.17 961.27 660.84 961.14 701.5C961.1 716.83 960.98 732.17 961.14 747.5C961.25 757.68 962.38 769.2 956.84 778.32C954.15 782.73 949.63 787.07 945.38 789.96C943.49 791.24 941.02 791.69 939.5 793C945.59 793 951.68 793 957.77 793C958.14 793.61 958.51 794.22 958.88 794.83C953.68 793.76 948.92 793.95 943.5 794.11C928.95 794.55 914.1 793.77 899.5 793.76C861.17 793.74 822.83 793.48 784.5 793.73C708.84 794.22 633.16 793.76 557.5 793.7C531.18 793.68 504.82 793.32 478.5 793.74C458.42 794.05 438.11 794.4 417.98 793.84C418.06 793.56 418.14 793.28 418.21 793C436.29 792.83 454.37 792.67 472.45 792.5C450.32 783.84 450.13 767.2 450.05 746.5C450 734.5 450 722.49 450.14 710.5C450.76 654.52 450.03 598.49 450.04 542.5C450.04 527.17 450.09 511.83 450.1 496.5C450.12 485.75 449.63 474.88 451 464.19C453.41 461.86 459.81 455.22 462.71 454.28C464.48 453.7 466.52 454.03 468.34 453.68C472.12 452.96 477.57 450.72 481.01 449.01ZM854.62 509.45C885.15 507.19 894.8 549.92 867.25 562.64C863.86 564.2 860.26 565.08 856.5 565.18C828.23 565.9 817.18 527.3 841.75 513.3C845.72 511.04 850.07 509.79 854.62 509.45ZM293.86 793C293.93 793.22 294 793.45 294.07 793.67C282.21 793.73 270.36 793.8 258.5 793.87C256.18 794.69 256.72 794.12 256 796.53C255.67 796.53 255.33 796.53 255 796.53C254 794.85 255.61 795.89 254.28 794.44C253.55 793.65 250.55 793.88 249.5 793.83C244.84 793.63 240.2 793.84 235.5 793.66C232.31 793.55 226.02 794.44 223.54 794.08C222.74 793.97 222.48 793.13 221.51 793.06C219.26 792.91 213.42 794.16 210.5 794.11C204.69 794.02 198.83 793.95 193 794.02C188.01 794.07 178 792.72 173.83 794.77C171.83 794.72 169.83 794.67 167.83 794.61C155.3 794.42 142.76 794.24 130.22 794.05C133.35 791.81 143.2 792.97 147.5 793C157.16 793.06 166.84 793 176.5 792.93C180.84 792.9 185.32 793.36 189.57 792.5C176.69 782.15 165.04 770.23 156.65 755.89C153.3 750.17 148.54 744.35 151.4 737.5C155.89 734.11 163.59 736.21 168.49 738.07C180.79 742.72 191.99 749.6 202.5 757.42C201.86 752.21 193.71 744.56 189.96 740.53C176.6 726.19 160.01 715.22 146.35 701.15C141.06 695.71 134.13 689.52 134.09 681.5C139.94 673.64 154.45 680.38 161.53 683.92C176.71 691.5 189.99 704.51 198.3 719.29C201.44 724.89 204.56 730.65 206.92 736.61C208.48 740.58 210.08 746.11 213.71 748.5C212.26 756.58 217.28 764.04 218.5 771.94C219.11 766.36 217.96 761.04 217.65 755.5C216.44 733.7 207.62 712.81 193.27 696.23C182.42 683.69 169.7 673.2 158.22 661.27C148.65 651.33 139.14 641.42 131.95 629.55C128.94 624.59 125.16 619.32 127.79 613.5C132.39 610.62 137.36 612.46 142.05 614.42C150.35 617.9 158.24 622.61 165.2 628.31C191.56 649.9 205.67 681.77 213.43 714.22C214.66 719.35 216.46 724.3 217.5 729.48C218.79 721.22 217.19 711.88 216.75 703.5C216.37 696.27 216.59 688.87 215.55 681.7C213.28 666.06 207.75 650.79 203.81 635.5C198.66 615.48 193.95 595.24 190.48 574.88C188.06 560.66 186.37 545.97 186.88 531.5C187.1 525.14 187.62 518.36 192.5 513.86C198.62 513.63 202.2 518.53 204.92 523.65C210.34 533.84 213.92 544.75 216.62 555.92C222.93 582.05 223.77 612.7 221.96 639.5C221.22 650.4 219.36 661.59 219.3 672.5C219.23 683.7 220.29 694.92 220.5 706.13C225.15 690.55 222.5 671.69 224.02 655.5C226.18 632.37 228.7 608.64 235.66 586.35C238.71 576.58 242.38 566.46 248.85 558.36C251.97 554.45 254.22 551.76 259.5 551.83C268.49 559.43 263.45 573.85 264.5 583.75C266.17 583.06 267.83 582.37 269.5 581.68C270.24 583.29 270.97 584.89 271.71 586.5C270.36 590.68 268.22 594.45 264.89 597.41C263.42 598.72 261.67 599.52 260.71 601.29C259.27 603.95 258.82 607.48 257.88 610.35C255.45 617.72 252.85 625.11 249.85 632.27C243.81 646.66 237.6 660.91 232.06 675.49C230.43 679.78 228.45 684.28 227.48 688.78C224.11 704.37 222.12 725.66 223.5 741.48C224.47 733.64 226.98 725.97 228.59 718.27C233.54 694.47 242.08 671.02 257.17 651.7C262.41 645 269.08 638.12 276.74 634.19C278.87 633.1 281.27 632.68 283.4 631.69C285.8 630.57 286.73 629.89 289.5 629.84C290.5 632.59 290.34 629.98 290.87 632.46C291.42 635 287.22 640.13 286.56 643.05C283.57 656.27 277.58 669.19 270.14 680.5C270.52 682.17 270.9 683.83 271.28 685.5C267.38 692.06 260.56 695.52 255.75 701.23C246.14 712.65 237.22 726.44 231.9 740.4C230.16 744.95 227.68 749.63 227.43 754.5C231.81 750.86 234.31 743.91 237.67 739.22C242.58 732.38 248.84 726.06 255.77 721.28C259.57 718.66 267.41 713.49 271.47 718.05C275.51 722.59 271.07 734.65 269.23 739.68C262.12 759.07 252.57 777.71 237.88 792.5C256.54 792.67 275.2 792.83 293.86 793ZM866 526.5C860.82 528.17 859.96 526.39 855.42 525.42C852.84 524.86 850.04 524.66 847.45 524.5C847.45 529.51 847.45 534.53 847.45 539.54C851.16 537.79 854.14 538.13 857.5 537C859 539.8 862.55 538.83 865.56 538.5C864.63 536.5 863.71 534.5 862.78 532.5C863.86 530.5 864.93 528.5 866 526.5ZM1203 796.61C1206.08 796.53 1207.77 796.74 1210 794.5C1204.56 793.19 1198.62 794.17 1193 794.12C1183.83 794.03 1174.62 794.03 1165.5 794.15C1148.93 794.36 1131.97 793.48 1115.42 793.19C1114.16 793.17 1113.21 793.88 1112 793.97C1104.91 794.54 1097.38 793.91 1090.19 794C1090.49 793.33 1090.79 792.67 1091.09 792C1094.23 793.55 1098.74 793.23 1102.13 792.43C1103.3 792.16 1104.22 791.26 1105.51 791.37C1107.07 791.51 1107.84 792.49 1109.67 792.5C1107.76 789.31 1106.57 785.88 1104.94 782.56C1100.5 773.51 1096.04 764.6 1091.9 755.44C1091.08 753.61 1091.02 751.63 1090.16 750C1086.47 720.68 1082.78 691.36 1079.1 662.04C1079.9 661.98 1080.7 661.91 1081.5 661.85C1086.68 666.23 1091.97 678.04 1096.5 679.66C1100.05 673.27 1096.37 664.2 1094.87 657.5C1091.57 642.72 1090.31 626.92 1093.43 612C1094.45 607.14 1095.67 600.59 1099.74 597.24C1104.11 593.63 1109.03 597.09 1111.43 601.11C1113.69 604.89 1115.71 609.34 1117.09 613.51C1118.77 618.59 1119.25 624.45 1122.5 628.81C1128.41 625.92 1127.94 608.8 1129.02 602.51C1132.73 581.05 1140.91 559.42 1155.25 542.75C1160.46 536.69 1168.59 528.44 1177.46 530.01C1187.16 531.72 1186.25 545.31 1184.77 552.35C1181.96 565.67 1173.96 577.06 1167.05 588.49C1163.38 594.55 1158.24 601.1 1160.53 608.5C1164.9 611.2 1168.97 609.42 1173.55 608.02C1181.51 605.57 1188.97 602.11 1197.5 602.83C1204.18 603.39 1210.72 606.89 1210.65 614.49C1210.58 621.26 1205.66 627.12 1201.1 631.6C1190.21 642.29 1176.1 649.4 1164 658.54C1157.5 663.46 1147.87 673.76 1151.29 682.5C1156.05 686.15 1161.57 684.22 1166.62 682.11C1176.62 677.93 1186.56 673.44 1197.51 672.24C1201.94 671.75 1209.48 670.73 1212.58 674.94C1215.42 678.78 1212.54 683.4 1209.86 686.35C1203.12 693.75 1194 698.44 1186.88 705.38C1182.32 709.82 1179.25 715.57 1185.5 719.94C1187.71 719.72 1190.05 719.19 1192.28 719.46C1203.84 720.84 1197.31 735.99 1194.76 742.39C1188 759.35 1175.13 780.74 1160.98 792.5C1171.93 794.37 1187.99 793.03 1199.5 793C1202.03 792.99 1210.21 792.21 1212.09 793.44C1212.95 794 1212.82 794.7 1213.29 795.5C1210.23 797.41 1206.57 798 1203 796.61ZM848.5 543C846.76 545.33 846.83 548.75 848.5 551.02C849.52 547.94 849.65 545.95 848.5 543ZM851.76 630.44C855.94 629.83 860.28 630.18 864.37 631.29C891.68 638.7 889.19 680.9 861.29 685.59C857.13 686.28 852.55 686.1 848.53 684.86C820.34 676.16 822.26 634.73 851.76 630.44ZM717.75 648.5C714.61 651.29 700.57 651.96 697.5 649C697.17 649.32 696.27 650.51 696.25 650.52C694.47 651.14 688.53 651.12 686.75 650.5C685.91 650.21 686.99 649.76 686.59 649.53C685.76 649.06 685.88 649.52 685 649.5C683.62 649.46 682.91 650.19 681.47 650.52C677.14 651.52 666.04 650.98 662 650C663.67 650 665.33 650 667 650C664.49 649 660.7 648.3 657.69 649.23C656.81 649.5 656.47 650.45 655.47 650.55C653.8 650.71 652.97 649.39 651.47 649.03C649.39 648.54 646.64 649 644.5 649C644.69 651.74 640.7 650.67 638.5 650.67C633 650.66 626.29 652.05 622.69 647.5C622.81 645.84 622.58 644.57 623.72 643.18C625.86 640.57 639.78 641.71 643.5 641.72C662.5 641.77 681.5 641.7 700.5 641.73C707.07 641.74 719.13 638.78 717.75 648.5ZM847 647.08C835.16 652.05 840.86 672.69 853 672.77C854 672.81 855 672.86 856 672.9C859.34 673.29 861.53 672.46 864.5 670.81C864.58 670.54 864.65 670.27 864.73 670C864.94 669.17 865.15 668.33 865.36 667.5C862.52 665.27 857.63 662.69 856.14 659.31C854.99 656.72 856.65 653.38 855.68 650.89C855.64 650.79 852.5 649.11 851.81 648.5C854.08 647.13 854.94 646.92 855.5 644.44C852.67 645.32 849.83 646.2 847 647.08ZM860.5 658.78C861.25 661.71 865.76 664.8 868.5 665.68C868.85 663.38 869.2 661.08 869.56 658.78C866.54 658.78 863.52 658.78 860.5 658.78ZM418.25 792C417.17 790.63 416.08 789.26 415 787.9C415.17 787.46 415.33 787.02 415.5 786.58C416.95 787.22 418.4 787.86 419.85 788.5C419.7 789.5 419.55 790.5 419.39 791.5C419.01 791.67 418.63 791.83 418.25 792ZM172 796.2C172.67 796.12 173.33 796.04 174 795.96C175.67 796.26 177.33 796.55 179 796.84C176.83 796.98 174.67 797.11 172.5 797.25C172.33 796.9 172.17 796.55 172 796.2ZM202 796.61C201.83 796.82 201.67 797.03 201.5 797.24C200 797.12 198.5 796.99 197 796.86C198.67 796.78 200.33 796.69 202 796.61ZM214 796.86C210.69 796.86 207.38 796.86 204.07 796.86C207.38 796.86 210.69 796.86 214 796.86ZM275 796.6C274.83 796.81 274.67 797.02 274.5 797.23C271 797.11 267.5 796.99 264 796.87C267.67 796.78 271.33 796.69 275 796.6ZM333 796.67C335 796.72 337 796.78 339 796.84C337.17 796.99 335.33 797.13 333.5 797.28C333.33 797.08 333.17 796.87 333 796.67ZM470 796.86C468 796.86 466 796.86 464 796.86C466 796.86 468 796.86 470 796.86ZM503 796.57C502.83 796.79 502.67 797.01 502.5 797.23C500.33 797.1 498.17 796.97 496 796.84C498.33 796.75 500.67 796.66 503 796.57ZM504 796.57C506 796.66 508 796.75 510 796.84C508.17 796.97 506.33 797.1 504.5 797.23C504.33 797.01 504.17 796.79 504 796.57ZM536 796.56C541.67 796.65 547.33 796.74 553 796.83C547.5 796.96 542 797.09 536.5 797.22C536.33 797 536.17 796.78 536 796.56ZM564 796.87C562 796.86 560 796.86 558 796.85C560 796.86 562 796.86 564 796.87ZM620 796.83C618 796.84 616 796.84 614 796.84C616 796.84 618 796.84 620 796.83ZM633 796.84C631 796.84 629 796.84 627 796.84C629 796.84 631 796.84 633 796.84ZM644 796.58C645.67 796.67 647.33 796.75 649 796.84C647.5 796.97 646 797.1 644.5 797.23C644.33 797.01 644.17 796.8 644 796.58ZM686 796.84C684 796.84 682 796.84 680 796.84C682 796.84 684 796.84 686 796.84ZM696 796.85C693.67 796.84 691.33 796.84 689 796.84C691.33 796.84 693.67 796.84 696 796.85ZM730 796.85C728.33 796.85 726.67 796.85 725 796.85C726.67 796.85 728.33 796.85 730 796.85ZM739 796.86C736.67 796.86 734.33 796.85 732 796.85C734.33 796.85 736.67 796.86 739 796.86ZM771 796.57C770.83 796.79 770.67 797.01 770.5 797.23C769 797.09 767.5 796.96 766 796.82C767.67 796.74 769.33 796.66 771 796.57ZM878 796.59C877.83 796.81 877.67 797.02 877.5 797.24C872 797.11 866.5 796.98 861 796.85C866.67 796.76 872.33 796.68 878 796.59ZM909 796.57C908.83 796.78 908.67 797 908.5 797.22C905.33 797.09 902.17 796.97 899 796.84C902.33 796.75 905.67 796.66 909 796.57ZM918 796.58C920.33 796.59 922.67 796.6 925 796.61C924.83 796.82 924.67 797.03 924.5 797.24C922.5 797.24 920.5 797.23 918.5 797.23C918.33 797.01 918.17 796.8 918 796.58ZM994 796.86C991 796.86 988 796.85 985 796.85C988 796.85 991 796.86 994 796.86ZM1044 796.64C1043.83 796.86 1043.67 797.08 1043.5 797.31C1041.33 797.18 1039.17 797.05 1037 796.91C1039.33 796.82 1041.67 796.73 1044 796.64ZM1144 796.88C1142.33 796.88 1140.67 796.88 1139 796.88C1140.67 796.88 1142.33 796.88 1144 796.88ZM1156 796.87C1153 796.88 1150 796.88 1147 796.88C1150 796.88 1153 796.88 1156 796.87Z" fill="#e1e0f8" fill-rule="evenodd" stroke="#e1e0f8" stroke-width="0.25" stroke-linejoin="round"/>
<path d="M1041.08 398.94C1032.62 398.81 1028.17 396.41 1025.01 388.5C1027.66 384.42 1030.22 380.64 1026.5 376.27C1022.03 375.73 1021.57 377.68 1018.5 380.23C1015.36 375.61 1014.12 371.07 1014.01 365.5C1010.63 364.78 1007.24 364.06 1003.86 363.35C1001.93 361.89 1000.14 360.66 999.01 358.45C996.72 353.99 997.4 345.08 1003.53 343.87C1007.59 343.07 1011.37 346.76 1015.5 347.15C1024.8 348.02 1033.82 344.08 1042.32 350.13C1045.57 352.44 1046.05 355.29 1048.15 358.3C1050.05 361.01 1052.77 362.19 1053.69 365.73C1056.69 377.3 1047.37 389.91 1041.08 398.94ZM369.81 376.96C366.6 374.49 366.23 369.75 362.5 367.26C359.89 376.65 355.72 383.36 347.5 388.9C345.83 388.29 344.17 387.68 342.5 387.07C334.69 391.13 340.99 396.81 345.79 399.5C346.39 409.15 344.6 417.31 337.03 423.68C330.57 426 322.86 426.82 317.01 430.52C305.35 437.9 301.29 459.97 297.86 472.5C298.61 473.43 299.35 474.35 300.09 475.28C299.12 479.46 298.15 483.65 297.18 487.84C290.45 484.62 284.31 479.69 284.07 471.5C283.98 468.46 285.44 465.57 284.91 462.54C284.41 459.62 281.36 458.03 279.58 455.9C276.88 452.66 274.91 448.48 274.41 444.26C271.76 421.89 297.55 414.23 306.71 398.23C314.96 383.84 312.26 364.36 329.11 355.59C345.25 347.18 374.26 354.36 369.81 376.96ZM1009.32 372.5C1006.88 372.77 1005.98 372.99 1004.11 371.5C1006.55 369.93 1007.35 370.52 1009.32 372.5ZM1006.7 376.5C1006.65 377.5 1006.6 378.5 1006.55 379.5C1004.65 378.52 1004.91 376.99 1006.7 376.5ZM365.98 379.5C364.15 380.11 362.33 380.72 360.5 381.34C361.46 378.06 363.41 377.19 365.98 379.5ZM364.5 383.6C365.6 385.15 365.71 384.78 365.5 386.79C363.7 385.34 364.15 386.09 364.5 383.6ZM908.94 422.03C907.64 425.59 910.26 426.96 912.48 429.5C910.96 429.35 909.43 429.2 907.9 429.05C901.36 424.73 894.21 423.11 889.27 416.5C896.25 414.25 902.98 418.69 908.94 422.03ZM930.11 431.85C932.07 432.83 934.04 433.82 936 434.8C939.01 436.42 941.02 437.21 942.1 440.5C939.37 443.36 937.46 441.89 933.86 441.12C932.95 440.72 932.04 440.33 931.13 439.93C929.14 438.3 926.51 437.68 924.39 436.09C920.93 433.46 917.8 428.97 915.2 425.5C920.17 427.62 925.14 429.73 930.11 431.85ZM320.63 481.09C321.03 481.23 321.42 481.36 321.82 481.5C321.71 485.03 321.6 488.56 321.49 492.09C320.32 492.04 319.15 491.99 317.97 491.94C318.86 488.33 319.75 484.71 320.63 481.09ZM316.78 523.83C330.46 526.54 344.42 529.45 358.48 528.66C364.49 528.32 370.52 527.82 376.46 526.8C379.36 526.31 382.08 525.38 385.02 525.23C398.19 579.53 398.81 635.98 396.46 691.55C395.74 708.54 394.95 725.52 394.2 742.5C393.88 749.84 393.97 757.2 393.11 764.5C391.83 764.75 390.56 765.01 389.29 765.26C383.2 765.27 377.1 765.28 371 765.28C369.61 765.02 368.21 764.76 366.82 764.5C365.03 754.65 364.63 744.51 363.64 734.56C361.55 713.57 359.37 692.56 358.21 671.5C357.57 659.99 356.55 648.93 355.03 637.5C354.39 632.65 354.22 627.59 352.5 623C350.36 625.57 350.31 629.77 349.61 633.24C347.77 642.31 346.16 651.48 343.91 660.46C335.29 694.97 327.05 729.69 319.72 764.5C318.14 764.72 316.55 764.93 314.97 765.15C309.3 764.83 303.63 764.51 297.96 764.19C296.81 763.93 295.65 763.66 294.5 763.39C292.69 754.54 294.73 734.81 295.5 725.08C296.52 712.22 296.89 699.35 298.23 686.5C299.61 673.37 302.24 660.34 303.51 647.21C304.36 638.36 303.97 629.37 304.32 620.5C304.81 608.17 305.44 595.84 305.8 583.5C306.4 563.24 307.45 542.28 316.78 523.83ZM993.87 549.01C998.5 549.08 1002.95 550.18 1007.51 550.87C1014.74 551.96 1022.2 552.5 1029.5 552.81C1044.65 553.44 1059.08 551.07 1074.01 549.33C1075.22 573.71 1075 598.1 1075.88 622.5C1076.35 635.49 1075.72 649.4 1079.1 662.04C1082.78 691.36 1086.47 720.68 1090.16 750C1090.41 755.17 1090.67 760.33 1090.93 765.5C1089.66 765.73 1088.39 765.97 1087.12 766.2C1080.27 766.54 1073.42 766.87 1066.57 767.21C1065.09 766.98 1063.62 766.74 1062.14 766.5C1058.32 754.61 1056.33 741.81 1053.72 729.6C1048.66 705.88 1042.57 682.31 1038.16 658.46C1036.36 648.71 1035.54 638.77 1033.5 629.07C1027.31 643.91 1025.6 660.71 1023.87 676.5C1021.44 698.85 1019.15 721.23 1016.27 743.53C1015.3 751.07 1015.27 759.16 1013.35 766.5C1011.9 766.73 1010.45 766.96 1009 767.19C1002 767.13 994.99 767.08 987.99 767.03C986.83 766.85 985.66 766.67 984.5 766.49C983.3 759.72 983.9 752.41 983.9 745.5C983.89 733.17 983.89 720.83 983.89 708.5C983.9 674.71 984.3 641.18 987.23 607.5C988.93 587.95 992.29 568.55 993.87 549.01ZM987.89 773.95C994.68 776.5 1001.4 775.26 1008.38 774.55C1011.45 780.09 1012.22 788.81 1010.03 794.75C992.98 794.77 975.93 794.8 958.88 794.83C958.51 794.22 958.14 793.61 957.77 793C958.02 790.82 958.2 788.99 960.18 787.66C964.44 784.79 970.58 783.9 975.28 781.75C979.84 779.67 983.56 776.39 987.89 773.95ZM1067.06 774.1C1073.67 776.45 1080.94 774.92 1087.7 774.11C1090.67 779.38 1090.9 786.08 1091.09 792C1090.79 792.67 1090.49 793.33 1090.19 794C1085.26 796.5 1077.93 795.06 1072.5 794.82C1065.61 794.51 1058.43 795.06 1051.5 795.11C1047.26 795.15 1042.14 796.35 1039.12 793C1040.55 785.78 1048.25 785.32 1054.07 782.54C1058.89 780.24 1062.66 776.99 1067.06 774.1ZM296.98 776.02C306.37 782.08 309.43 784.44 321.21 782.77C326.32 785.23 332.01 787.65 332.03 793.94C329.11 795.64 325.81 795.14 322.5 795.13C316.06 795.11 299.04 796.47 294.07 793.67C294 793.45 293.93 793.22 293.86 793C293.68 787.36 294.06 780.97 296.98 776.02ZM370.99 776.86C378.87 777.27 386.85 784.22 394.37 778.8C401.25 781.83 408.12 784.86 415 787.9C416.08 789.26 417.17 790.63 418.25 792C418.24 792.33 418.23 792.67 418.21 793C418.14 793.28 418.06 793.56 417.98 793.84C417.65 794.12 417.31 794.4 416.98 794.68C412.32 794.81 407.66 794.94 403 795.06C401.67 795.06 400.33 795.05 399 795.05C395.87 794.97 392.73 794.9 389.6 794.82C387.57 794.46 385.53 794.11 383.5 793.76C383.23 794.21 382.95 794.65 382.68 795.1C378.62 794.89 374.56 794.68 370.5 794.47C370.07 794.22 369.63 793.97 369.2 793.72C369.14 793.48 369.08 793.24 369.02 793C368.68 787.46 369.24 782.14 370.99 776.86Z" fill="#293161" fill-rule="evenodd" stroke="#293161" stroke-width="0.25" stroke-linejoin="round"/>
<path d="M401 122.23C400.03 123.57 399.05 124.91 398.08 126.25C397.05 126.67 396.03 127.08 395 127.5C394.46 128.32 393.93 129.14 393.39 129.96C393.01 126.44 394.32 123.81 395.5 120.38C397.33 121 399.17 121.61 401 122.23ZM796.02 180.69C796.06 182.46 796.1 184.23 796.15 186C795.76 185.83 795.37 185.67 794.97 185.5C795.32 183.9 795.67 182.29 796.02 180.69ZM680 192.6C677.67 192.6 675.33 192.6 673 192.6C675.33 192.6 677.67 192.6 680 192.6ZM686 192.42C685.17 192.94 684.33 193.47 683.5 194C682.67 193.47 681.83 192.94 681 192.42C682.67 192.42 684.33 192.42 686 192.42ZM749 192.59C747.33 192.59 745.67 192.59 744 192.59C745.67 192.59 747.33 192.59 749 192.59ZM593.79 270.5C596.33 275.14 591.64 278.69 588.57 282.08C583.05 288.18 577.75 294.72 572.6 301.15C569.9 304.52 567.25 308.64 563.5 310.82C560.72 309.75 549.46 298.87 548.5 296.06C547.97 294.5 548.63 293.82 549.25 292.5C555.38 290.53 558.64 299.12 563.5 301.92C570.85 294.29 577.11 285.52 583.94 277.44C586.77 274.1 589.05 269.5 593.79 270.5ZM857.1 292.15C856.36 293.07 855.62 293.98 854.87 294.9C854.44 295.16 854 295.43 853.57 295.69C852.38 295.51 851.19 295.34 850 295.16C849.67 294.61 849.33 294.05 849 293.5C849.5 292 850 290.5 850.5 289C851.5 288.67 852.5 288.33 853.5 288C854.67 288.17 855.83 288.33 857 288.5C857.03 289.72 857.07 290.94 857.1 292.15ZM861.71 309.5C855.22 311.13 848.57 310.21 842.5 307.8C841.22 297.46 855.29 295.96 860.47 302.02C862.29 304.15 861.86 306.92 861.71 309.5ZM594.18 391.5C596.07 395.99 591.47 399.72 588.52 402.97C583.11 408.92 578.11 415.3 573 421.51C570.15 424.97 567.48 429.07 563.5 431.16C559.03 429.75 550.1 419.87 548.09 415.5C551.84 406.97 559.35 420.11 563.5 422.67C570.67 415.07 577.46 406.55 583.98 398.37C587.04 394.53 588.85 389.78 594.18 391.5ZM1044.15 410.82C1052.81 414 1062.3 417.87 1068.86 424.62C1079.86 435.94 1084.74 456.49 1088.96 471.39C1091.65 480.89 1096.32 493.64 1092.78 503.32C1089.85 511.3 1081.62 516.02 1074.91 520.5C1074.22 527.09 1075.22 534.07 1075.68 540.69C1075.92 544.02 1077.01 547.35 1074.01 549.33C1059.08 551.07 1044.65 553.44 1029.5 552.81C1022.2 552.5 1014.74 551.96 1007.51 550.87C1002.95 550.18 998.5 549.08 993.87 549.01C991.11 544.71 993.15 536.31 993.55 531.27C994.67 517.13 995.55 502.68 995 488.5C986.88 495.19 981.68 510.08 968.5 509.88C965.99 509.84 963.6 508.73 961.28 507.95C956.61 503.68 951.53 500.05 947.33 495.2C942.5 489.62 937.91 482.45 932.31 477.8C928.57 472.37 924.83 466.93 921.09 461.5C921.41 460.41 921.73 459.32 922.05 458.23C925.71 454.84 929.37 451.45 933.03 448.07C936.76 449.11 939.58 452.52 942.47 455.04C948.24 460.06 954.35 466.25 960.95 470.03C962.97 471.52 964.98 473.01 967 474.5C969.55 467.69 974.02 461.33 977.4 454.86C982.51 445.08 987.35 432.74 995.82 425.35C1000.17 421.54 1005.63 418.62 1010.98 416.48C1013.65 415.42 1016.48 414.71 1018.85 413.15C1022.75 412.73 1026.56 411.53 1030.5 411.14C1035.04 410.68 1039.62 411.08 1044.15 410.82ZM360.46 422.09C375.64 423.45 384.42 432.77 394.55 442.95C398.05 446.47 404.46 450.79 403.86 455.98C399.45 461.63 395.04 467.27 390.64 472.92C388.01 474.07 386.81 472.63 384.5 471.29C381.05 478.78 382.38 499.06 383.65 507.51C384.4 512.55 387.59 520.77 385.02 525.23C382.08 525.38 379.36 526.31 376.46 526.8C370.52 527.82 364.49 528.32 358.48 528.66C344.42 529.45 330.46 526.54 316.78 523.83C314.81 520.19 317.39 515.87 318.63 512.24C320.93 505.53 322.38 499.16 321.49 492.09C321.6 488.56 321.71 485.03 321.82 481.5C321.42 481.36 321.03 481.23 320.63 481.09C313.79 479.15 306.94 477.21 300.09 475.28C299.35 474.35 298.61 473.43 297.86 472.5C301.29 459.97 305.35 437.9 317.01 430.52C322.86 426.82 330.57 426 337.03 423.68C339.14 425.62 341.19 427.43 343.87 428.58C349.88 431.17 361.18 431.15 360.46 422.09ZM856.93 422.39C857.14 422.64 857.34 422.9 857.54 423.15C857.54 423.44 857.54 423.74 857.54 424.03C857.36 424.58 857.17 425.13 856.98 425.68C856.31 425.67 855.64 425.67 854.97 425.67C854.86 424.78 854.74 423.89 854.62 423C855.39 422.8 856.16 422.59 856.93 422.39ZM593.97 511.5C596.28 516.17 591.43 519.55 588.58 523.1C583.23 529.76 569.78 547.61 563.5 551.51C558.67 549.62 555.82 544.91 552.31 541.19C551.09 539.88 548.63 538.16 548.32 536.3C548.11 535.09 548.72 534.52 549.16 533.5C555.43 531.17 558.61 539.84 563.5 542.75C570.64 534.9 577.21 526.52 584.09 518.43C587.13 514.85 588.73 510.4 593.97 511.5ZM866 526.5C864.93 528.5 863.86 530.5 862.78 532.5C863.71 534.5 864.63 536.5 865.56 538.5C862.55 538.83 859 539.8 857.5 537C854.14 538.13 851.16 537.79 847.45 539.54C847.45 534.53 847.45 529.51 847.45 524.5C850.04 524.66 852.84 524.86 855.42 525.42C859.96 526.39 860.82 528.17 866 526.5ZM853 535.5C851.84 533.73 851.78 533.68 850 533.5C851.16 535.27 851.22 535.32 853 535.5ZM594.46 632.5C595.51 636.83 591.74 640.26 588.95 643.34C583.07 649.84 577.58 656.77 572.05 663.57C569.28 666.98 566.86 671.08 562.5 672.11C559.8 670.49 549.03 660.06 548.41 657.22C547.88 654.81 549.74 653.93 551.5 653.06C555.5 656.57 559.5 660.08 563.5 663.6C570.94 656.08 577.65 646.99 584.21 638.67C586.96 635.18 589.83 629.73 594.46 632.5ZM864.73 670C863.65 670 862.58 670 861.5 670C860.83 670.67 860.17 671.33 859.5 672C858.5 672 857.5 672 856.5 672C856.33 672.3 856.17 672.6 856 672.9C855 672.86 854 672.81 853 672.77C856.01 668.94 858.99 670.97 859.5 666C857.75 665.35 854.53 664.11 852.72 665.22C851.14 666.18 852.3 668.68 849.66 666.84C848.53 666.06 848.59 665.63 848 664.5C854.09 661.31 845.8 660.64 853 658.5C852.73 657.96 851.39 656.06 851.41 655.53C851.42 655.1 852.71 654.87 852.56 654.5C852.51 654.38 850.6 653.1 850 652.5C853.77 653.14 852.74 650.06 851.47 649.41C849.44 648.37 849.72 652.17 847 647.08C849.83 646.2 852.67 645.32 855.5 644.44C854.94 646.92 854.08 647.13 851.81 648.5C852.5 649.11 855.64 650.79 855.68 650.89C856.65 653.38 854.99 656.72 856.14 659.31C857.63 662.69 862.52 665.27 865.36 667.5C865.15 668.33 864.94 669.17 864.73 670ZM842.5 658C843 658.83 843.5 659.67 844 660.5C841.85 660.24 842.21 660.36 842.5 658ZM860.5 658.78C863.52 658.78 866.54 658.78 869.56 658.78C869.2 661.08 868.85 663.38 868.5 665.68C865.76 664.8 861.25 661.71 860.5 658.78ZM389.6 794.82C389.4 795.23 389.2 795.63 389 796.04C386.89 795.73 384.78 795.42 382.68 795.1C382.95 794.65 383.23 794.21 383.5 793.76C385.53 794.11 387.57 794.46 389.6 794.82Z" fill="#6765d9" fill-rule="evenodd" stroke="#6765d9" stroke-width="0.25" stroke-linejoin="round"/>
<path d="M796.41 154C796.28 162.9 796.15 171.79 796.02 180.69C795.67 182.29 795.32 183.9 794.97 185.5C795.37 185.67 795.76 185.83 796.15 186C797.46 200.39 786.36 200.23 775.5 200.25C769.83 200.25 764.17 200.27 758.5 200.28C722.83 200.31 687.17 200.27 651.5 200.27C642.53 200.27 622.38 203.61 618.51 192.95C617.46 190.08 617.69 187 617.7 184C617.83 172.29 617.97 160.57 618.1 148.86C622.9 137.62 630.76 138.42 641.5 138.46C652.49 138.49 663.52 138.77 674.5 138.26C676.27 127.48 673.91 121.26 680.96 111.47C693.29 94.34 720.88 94.06 733.5 111.04C740.32 120.22 738.35 128.1 740.5 138.31C744.83 138.33 749.16 138.55 753.5 138.54C759.5 138.53 765.5 138.48 771.5 138.44C783.56 138.36 796.31 138.31 796.41 154ZM702.95 117.59C686.34 123.89 695.65 147.64 712.24 141.67C728.05 135.97 719.15 111.44 702.95 117.59ZM680 192.6C677.67 192.6 675.33 192.6 673 192.6C675.33 192.6 677.67 192.6 680 192.6ZM686 192.42C684.33 192.42 682.67 192.42 681 192.42C681.83 192.94 682.67 193.47 683.5 194C684.33 193.47 685.17 192.94 686 192.42ZM749 192.59C747.33 192.59 745.67 192.59 744 192.59C745.67 192.59 747.33 192.59 749 192.59ZM867.22 418C866.98 416.24 866.74 414.48 866.5 412.72C864.67 412.81 862.83 412.9 861 412.99C855.88 413.16 850.76 413.33 845.64 413.5C845.73 416.67 845.82 419.84 845.91 423.01C845.91 423.99 845.92 424.97 845.92 425.96C846.33 426.68 846.73 427.41 847.13 428.13C847.4 428.13 847.66 428.14 847.93 428.14C852.63 428.25 857.33 428.36 862.02 428.47C862.68 428.56 863.34 428.66 864 428.75C864.33 428.76 864.67 428.77 865 428.79C865.34 428.84 865.67 428.89 866.01 428.94C864.59 432.68 861.09 430.83 858.5 429C858.53 429.48 858.74 430.62 858.25 430.91C855.68 432.43 846.06 431.39 843.37 430.5C842.17 425.85 842.14 411.06 843.73 406.5C844.63 406.28 846.74 406.32 847.39 405.77C849.92 403.61 846.32 403.99 850.66 403.5C850.68 404.01 850.47 405.56 850.81 405.94C851.11 406.26 859.83 406.05 860.36 405.79C861.15 405.41 861.98 403.77 862.5 403.05C864.87 405.5 865.04 405.59 868.5 406.72C868.78 408 869.72 415.3 869.19 416.47C868.65 417.65 868.06 417.35 867.22 418ZM847.5 410C846.67 410.5 845.83 411 845 411.5C846.33 411.5 847.67 411.5 849 411.5C848.5 411 848 410.5 847.5 410ZM867.25 419C867.94 419.17 868.62 419.33 869.3 419.5C868.96 423.32 870.02 428.11 867.5 431.1C867 430.38 866.5 429.66 866.01 428.94C866.03 428.71 866.05 428.47 866.07 428.24C866.34 427.83 866.62 427.41 866.89 427C867.01 424.33 867.13 421.67 867.25 419ZM851.77 425.16C851.57 425.4 851.36 425.65 851.16 425.9C850.77 425.88 850.39 425.86 850 425.84C849.67 424.73 849.33 423.61 849 422.5C850 422.5 851 422.5 852 422.5C851.92 423.39 851.85 424.27 851.77 425.16ZM848.5 543C849.65 545.95 849.52 547.94 848.5 551.02C846.83 548.75 846.76 545.33 848.5 543ZM173.83 794.77C173.89 795.17 173.94 795.57 174 795.96C173.33 796.04 172.67 796.12 172 796.2C171 796.22 170 796.23 169 796.24C168.61 795.7 168.22 795.16 167.83 794.61C169.83 794.67 171.83 794.72 173.83 794.77ZM369.2 793.72C369.63 793.97 370.07 794.22 370.5 794.47C374.56 794.68 378.62 794.89 382.68 795.1C382.62 795.52 382.56 795.94 382.5 796.35C377.67 796.34 372.83 796.33 368 796.32C368.4 795.45 368.8 794.58 369.2 793.72ZM389.6 794.82C392.73 794.9 395.87 794.97 399 795.05C399 795.41 399 795.76 399 796.12C395.67 796.09 392.33 796.07 389 796.04C389.2 795.63 389.4 795.23 389.6 794.82ZM403 795.06C407.66 794.94 412.32 794.81 416.98 794.68C417.65 795.16 418.33 795.63 419 796.11C417.67 796.11 416.33 796.11 415 796.11C411 795.76 407 795.41 403 795.06ZM857.83 796.08C855.94 796.07 854.06 796.07 852.17 796.07C852.28 795.72 852.39 795.36 852.5 795C854.17 795 855.83 795 857.5 795C857.61 795.36 857.72 795.72 857.83 796.08Z" fill="#8786da" fill-rule="evenodd" stroke="#8786da" stroke-width="0.25" stroke-linejoin="round"/>
<path d="M1003.86 363.35C1007.24 364.06 1010.63 364.78 1014.01 365.5C1014.12 371.07 1015.36 375.61 1018.5 380.23C1021.57 377.68 1022.03 375.73 1026.5 376.27C1030.22 380.64 1027.66 384.42 1025.01 388.5C1028.17 396.41 1032.62 398.81 1041.08 398.94C1042.1 402.9 1043.13 406.86 1044.15 410.82C1039.62 411.08 1035.04 410.68 1030.5 411.14C1026.56 411.53 1022.75 412.73 1018.85 413.15C1018.12 409.93 1017.39 406.72 1016.66 403.5C1013.68 403.7 1010.72 404.51 1007.69 403.72C1000.39 401.81 1004.07 393.21 1000.91 388.7C1000.2 387.68 998.45 387.13 997.39 386.5C997.52 382.62 1000.36 380.7 1001.52 377.05C1002.16 375.02 1003.66 365.77 1003.86 363.35ZM369.81 376.96C368.49 383.65 373.64 386.13 375.68 391.5C374.8 392.49 372.78 393.57 372.29 394.72C370.38 399.15 373.78 405.1 369.3 408.81C366.59 411.05 362.23 410.66 359.04 411.5C358.05 415.56 357.45 418.89 360.46 422.09C361.18 431.15 349.88 431.17 343.87 428.58C341.19 427.43 339.14 425.62 337.03 423.68C344.6 417.31 346.39 409.15 345.79 399.5C340.99 396.81 334.69 391.13 342.5 387.07C344.17 387.68 345.83 388.29 347.5 388.9C355.72 383.36 359.89 376.65 362.5 367.26C366.23 369.75 366.6 374.49 369.81 376.96ZM1009.32 372.5C1007.35 370.52 1006.55 369.93 1004.11 371.5C1005.98 372.99 1006.88 372.77 1009.32 372.5ZM1006.7 376.5C1004.91 376.99 1004.65 378.52 1006.55 379.5C1006.6 378.5 1006.65 377.5 1006.7 376.5ZM365.98 379.5C363.41 377.19 361.46 378.06 360.5 381.34C362.33 380.72 364.15 380.11 365.98 379.5ZM364.5 383.6C364.15 386.09 363.7 385.34 365.5 386.79C365.71 384.78 365.6 385.15 364.5 383.6ZM930.11 431.85C925.14 429.73 920.17 427.62 915.2 425.5C917.8 428.97 920.93 433.46 924.39 436.09C926.51 437.68 929.14 438.3 931.13 439.93C931.33 441.57 931.54 443.21 931.74 444.86C932.17 445.93 932.6 447 933.03 448.07C929.37 451.45 925.71 454.84 922.05 458.23C918.15 455 908.73 447.48 907.81 442.48C907.32 439.85 908.42 437.13 908.32 434.5C908.24 432.45 907.37 431.05 907.9 429.05C909.43 429.2 910.96 429.35 912.48 429.5C910.26 426.96 907.64 425.59 908.94 422.03C912.01 420.61 913.97 421.8 917.11 422.45C923.29 423.74 928.5 424.96 930.11 431.85ZM481.01 449.01C477.57 450.72 472.12 452.96 468.34 453.68C466.52 454.03 464.48 453.7 462.71 454.28C459.81 455.22 453.41 461.86 451 464.19C446.63 467.04 442.97 471.13 438.99 474.49C435.53 477.41 431.66 479.86 428.01 482.53C423.81 485.62 418.14 489.34 412.67 488.65C407.55 488 402.87 483.53 398.89 480.57C395.86 478.33 392.74 476.06 390.64 472.92C395.04 467.27 399.45 461.63 403.86 455.98C407.41 459.33 410.95 462.69 414.5 466.04C426.62 459.93 438.73 453.81 450.85 447.7C457.35 445.26 461.14 439.97 466.73 436.23C471.57 433 477.48 431.91 482.45 429.15C485.76 428.66 488.09 427.75 491.34 428.5C488.95 433.07 483.45 433.07 480.03 436.5C483.75 439.68 483.03 444.86 481.01 449.01ZM300.09 475.28C306.94 477.21 313.79 479.15 320.63 481.09C319.75 484.71 318.86 488.33 317.97 491.94C313.17 499.34 312.3 509.97 310.91 518.49C308.69 532.03 304.1 545.32 302.51 558.93C301.67 566.1 307.77 575.14 302.5 581.65C300.49 579.87 300.33 577.69 299.5 575.18C296.22 581.12 298.89 587.05 296.5 590.97C284.53 589.41 285.48 575.24 288.16 566.58C288.99 563.89 290.35 561.25 290.76 558.45C291.37 554.24 290.96 549.74 291.07 545.5C291.31 536.53 291.45 527.45 292.17 518.5C293.01 508.11 296.03 498.11 297.18 487.84C298.15 483.65 299.12 479.46 300.09 475.28ZM297.96 764.19C303.63 764.51 309.3 764.83 314.97 765.15C312.72 772.92 314.95 778.32 321.21 782.77C309.43 784.44 306.37 782.08 296.98 776.02C297.31 772.07 297.63 768.13 297.96 764.19ZM371 765.28C377.1 765.28 383.2 765.27 389.29 765.26C389.23 770.38 389.18 774.16 392.5 778.23C393.12 778.42 393.75 778.61 394.37 778.8C386.85 784.22 378.87 777.27 370.99 776.86C371.19 776.41 371.39 775.95 371.59 775.5C371.39 772.09 371.2 768.69 371 765.28ZM1087.12 766.2C1087.31 768.84 1087.5 771.47 1087.7 774.11C1080.94 774.92 1073.67 776.45 1067.06 774.1C1066.9 771.81 1066.73 769.51 1066.57 767.21C1073.42 766.87 1080.27 766.54 1087.12 766.2ZM987.99 767.03C994.99 767.08 1002 767.13 1009 767.19C1008.79 769.64 1008.58 772.09 1008.38 774.55C1001.4 775.26 994.68 776.5 987.89 773.95C987.92 771.65 987.96 769.34 987.99 767.03Z" fill="#f8b8a0" fill-rule="evenodd" stroke="#f8b8a0" stroke-width="0.25" stroke-linejoin="round"/>
<path d="M401 122.23C401.35 122.79 401.7 123.35 402.05 123.91C400.73 124.69 399.4 125.47 398.08 126.25C399.05 124.91 400.03 123.57 401 122.23ZM661 281.83C657.67 281.83 654.33 281.83 651 281.83C651.17 281.55 651.33 281.26 651.5 280.98C654.5 280.98 657.5 280.98 660.5 280.98C660.67 281.26 660.83 281.55 661 281.83ZM857.1 292.15C857.07 290.94 857.03 289.72 857 288.5C855.83 288.33 854.67 288.17 853.5 288C852.5 288.33 851.5 288.67 850.5 289C850 290.5 849.5 292 849 293.5C849.33 294.05 849.67 294.61 850 295.16C844.93 293.33 844.17 285.25 850.01 283.36C855.5 281.58 859.98 287.76 857.1 292.15ZM863.02 296.11C862.18 296.09 861.34 296.07 860.5 296.05C860.09 295.04 859.68 294.02 859.27 293C859.36 292.67 859.46 292.33 859.56 292C859.72 291.67 859.89 291.33 860.05 291C859.95 289.83 859.85 288.67 859.75 287.5C861.33 286.88 862.92 286.27 864.5 285.65C865.5 286.58 866.5 287.51 867.5 288.43C867.79 291.37 867.86 295.24 864 294.5C863.67 295.04 863.34 295.57 863.02 296.11ZM863.02 296.11C864.73 296.95 867.24 297.81 868.7 298.97C873.66 302.92 871.19 307.54 865.5 308.13C864.2 303.89 863.44 301.02 859.5 298.92C859.87 296.78 861.02 297.13 863.02 296.11ZM847.5 410C848 410.5 848.5 411 849 411.5C847.67 411.5 846.33 411.5 845 411.5C845.83 411 846.67 410.5 847.5 410ZM861 412.99C862.83 412.9 864.67 412.81 866.5 412.72C866.74 414.48 866.98 416.24 867.22 418C867.23 418.33 867.24 418.67 867.25 419C867.13 421.67 867.01 424.33 866.89 427C866.63 427 866.36 427 866.09 427C866.06 425.67 866.04 424.35 866.01 423.02C865.84 419.78 865.67 416.54 865.5 413.3C864.3 413.46 863.11 413.61 861.91 413.77C861.61 413.78 861.3 413.8 861 413.81C861 413.54 861 413.26 861 412.99ZM851.23 415.89C851.52 416.42 851.82 416.96 852.12 417.5C851.41 417.83 850.71 418.17 850 418.5C850.7 418.83 851.41 419.17 852.11 419.5C847.57 420.11 846.9 417.36 851.23 415.89ZM862.98 417C862.65 417.5 862.33 418 862 418.5C862.35 418.67 862.69 418.83 863.04 419C862.19 419.27 861.35 419.55 860.5 419.82C860.5 418.72 860.5 417.61 860.5 416.5C861.17 416.4 861.83 416.3 862.5 416.2C862.66 416.47 862.82 416.73 862.98 417ZM853.98 416.93C854.32 416.94 854.66 416.95 855 416.95C855.33 417.8 855.67 418.65 856 419.5C855.29 419.29 854.59 419.07 853.88 418.86C853.92 418.22 853.95 417.58 853.98 416.93ZM857 417.92C857.31 417.91 857.61 417.9 857.92 417.9C857.95 418.46 857.97 419.03 858 419.6C857.67 419.04 857.33 418.48 857 417.92ZM862.62 422.5C862.19 424.79 862.66 424.21 860.5 425.2C860.28 422.86 859.95 422.35 862.62 422.5ZM861.5 423C861.33 423.17 861.17 423.33 861 423.5C861.17 423.67 861.33 423.83 861.5 424C861.67 423.83 861.83 423.67 862 423.5C861.83 423.33 861.67 423.17 861.5 423ZM657 522.79C655.33 522.79 653.67 522.79 652 522.79C655.26 520.96 653.74 520.96 657 522.79ZM853 535.5C851.22 535.32 851.16 535.27 850 533.5C851.78 533.68 851.84 533.73 853 535.5ZM847 647.08C849.72 652.17 849.44 648.37 851.47 649.41C852.74 650.06 853.77 653.14 850 652.5C850.6 653.1 852.51 654.38 852.56 654.5C852.71 654.87 851.42 655.1 851.41 655.53C851.39 656.06 852.73 657.96 853 658.5C845.8 660.64 854.09 661.31 848 664.5C848.59 665.63 848.53 666.06 849.66 666.84C852.3 668.68 851.14 666.18 852.72 665.22C854.53 664.11 857.75 665.35 859.5 666C858.99 670.97 856.01 668.94 853 672.77C840.86 672.69 835.16 652.05 847 647.08ZM842.5 658C842.21 660.36 841.85 660.24 844 660.5C843.5 659.67 843 658.83 842.5 658ZM864.73 670C864.65 670.27 864.58 670.54 864.5 670.81C861.53 672.46 859.34 673.29 856 672.9C856.17 672.6 856.33 672.3 856.5 672C857.5 672 858.5 672 859.5 672C860.17 671.33 860.83 670.67 861.5 670C862.58 670 863.65 670 864.73 670ZM255 796.53C241.33 796.64 227.67 796.75 214 796.86C210.69 796.86 207.38 796.86 204.07 796.86C203.38 796.77 202.69 796.69 202 796.61C200.33 796.69 198.67 796.78 197 796.86C191 796.85 185 796.85 179 796.84C177.33 796.55 175.67 796.26 174 795.96C173.94 795.57 173.89 795.17 173.83 794.77C178 792.72 188.01 794.07 193 794.02C198.83 793.95 204.69 794.02 210.5 794.11C213.42 794.16 219.26 792.91 221.51 793.06C222.48 793.13 222.74 793.97 223.54 794.08C226.02 794.44 232.31 793.55 235.5 793.66C240.2 793.84 244.84 793.63 249.5 793.83C250.55 793.88 253.55 793.65 254.28 794.44C255.61 795.89 254 794.85 255 796.53ZM369.02 793C369.08 793.24 369.14 793.48 369.2 793.72C368.8 794.58 368.4 795.45 368 796.32C358.33 796.49 348.67 796.67 339 796.84C337 796.78 335 796.72 333 796.67C313.67 796.64 294.33 796.62 275 796.6C271.33 796.69 267.67 796.78 264 796.87C261.33 796.76 258.67 796.64 256 796.53C256.72 794.12 256.18 794.69 258.5 793.87C270.36 793.8 282.21 793.73 294.07 793.67C299.04 796.47 316.06 795.11 322.5 795.13C325.81 795.14 329.11 795.64 332.03 793.94C344.36 793.63 356.69 793.31 369.02 793ZM958.88 794.83C975.93 794.8 992.98 794.77 1010.03 794.75C1018.9 791.55 1030.91 795.72 1039.12 793C1042.14 796.35 1047.26 795.15 1051.5 795.11C1058.43 795.06 1065.61 794.51 1072.5 794.82C1077.93 795.06 1085.26 796.5 1090.19 794C1097.38 793.91 1104.91 794.54 1112 793.97C1113.21 793.88 1114.16 793.17 1115.42 793.19C1131.97 793.48 1148.93 794.36 1165.5 794.15C1174.62 794.03 1183.83 794.03 1193 794.12C1198.62 794.17 1204.56 793.19 1210 794.5C1207.77 796.74 1206.08 796.53 1203 796.61C1187.33 796.7 1171.67 796.79 1156 796.87C1153 796.88 1150 796.88 1147 796.88C1146 796.88 1145 796.88 1144 796.88C1142.33 796.88 1140.67 796.88 1139 796.88C1107.33 796.8 1075.67 796.72 1044 796.64C1041.67 796.73 1039.33 796.82 1037 796.91C1022.67 796.9 1008.33 796.88 994 796.86C991 796.86 988 796.85 985 796.85C965 796.77 945 796.69 925 796.61C922.67 796.6 920.33 796.59 918 796.58C915 796.58 912 796.57 909 796.57C905.67 796.66 902.33 796.75 899 796.84C892 796.75 885 796.67 878 796.59C872.33 796.68 866.67 796.76 861 796.85C860.17 796.83 859.33 796.82 858.5 796.8C858.28 796.56 858.06 796.32 857.83 796.08C857.72 795.72 857.61 795.36 857.5 795C855.83 795 854.17 795 852.5 795C852.39 795.36 852.28 795.72 852.17 796.07C825.11 796.24 798.06 796.41 771 796.57C769.33 796.66 767.67 796.74 766 796.82C757 796.83 748 796.84 739 796.86C736.67 796.86 734.33 796.85 732 796.85C731.33 796.85 730.67 796.85 730 796.85C728.33 796.85 726.67 796.85 725 796.85C715.33 796.85 705.67 796.85 696 796.85C693.67 796.84 691.33 796.84 689 796.84C688 796.84 687 796.84 686 796.84C684 796.84 682 796.84 680 796.84C669.67 796.84 659.33 796.84 649 796.84C647.33 796.75 645.67 796.67 644 796.58C640.33 796.67 636.67 796.75 633 796.84C631 796.84 629 796.84 627 796.84C624.67 796.84 622.33 796.84 620 796.83C618 796.84 616 796.84 614 796.84C597.33 796.85 580.67 796.86 564 796.87C562 796.86 560 796.86 558 796.85C556.33 796.84 554.67 796.84 553 796.83C547.33 796.74 541.67 796.65 536 796.56C527.33 796.65 518.67 796.74 510 796.84C508 796.75 506 796.66 504 796.57C503.67 796.57 503.33 796.57 503 796.57C500.67 796.66 498.33 796.75 496 796.84C487.33 796.85 478.67 796.85 470 796.86C468 796.86 466 796.86 464 796.86C449 796.61 434 796.36 419 796.11C418.33 795.63 417.65 795.16 416.98 794.68C417.31 794.4 417.65 794.12 417.98 793.84C438.11 794.4 458.42 794.05 478.5 793.74C504.82 793.32 531.18 793.68 557.5 793.7C633.16 793.76 708.84 794.22 784.5 793.73C822.83 793.48 861.17 793.74 899.5 793.76C914.1 793.77 928.95 794.55 943.5 794.11C948.92 793.95 953.68 793.76 958.88 794.83ZM130.22 794.05C142.76 794.24 155.3 794.42 167.83 794.61C168.22 795.16 168.61 795.7 169 796.24C156.83 796.45 144.67 796.65 132.5 796.85C130.41 795.7 130.65 796.35 130.22 794.05ZM399 795.05C400.33 795.05 401.67 795.06 403 795.06C407 795.41 411 795.76 415 796.11C414.83 796.32 414.67 796.53 414.5 796.74C409.33 796.53 404.17 796.33 399 796.12C399 795.76 399 795.41 399 795.05Z" fill="#babaec" fill-rule="evenodd" stroke="#babaec" stroke-width="0.25" stroke-linejoin="round"/>
</svg>